0
SECTION
2
HEADER
9
$INSUNITS
70
4
9
$ACADVER
1
AC1014
9
$HANDSEED
5
FFFF
0
ENDSEC
0
SECTION
2
TABLES
0
TABLE
2
VPORT
5
8
100
AcDbSymbolTable
0
ENDTAB
0
TABLE
2
LTYPE
5
5
100
AcDbSymbolTable
0
LTYPE
5
14
100
AcDbSymbolTableRecord
100
AcDbLinetypeTableRecord
2
BYBLOCK
70
0
0
LTYPE
5
15
100
AcDbSymbolTableRecord
100
AcDbLinetypeTableRecord
2
BYLAYER
70
0
0
ENDTAB
0
TABLE
2
LAYER
5
2
100
AcDbSymbolTable
70
2
0
LAYER
5
50
100
AcDbSymbolTableRecord
100
AcDbLayerTableRecord
2
0
70
0
6
CONTINUOUS
0
ENDTAB
0
TABLE
2
STYLE
5
3
100
AcDbSymbolTable
70
1
0
STYLE
5
11
100
AcDbSymbolTableRecord
100
AcDbTextStyleTableRecord
2
STANDARD
70
0
0
ENDTAB
0
TABLE
2
VIEW
5
6
100
AcDbSymbolTable
70
0
0
ENDTAB
0
TABLE
2
UCS
5
7
100
AcDbSymbolTable
70
0
0
ENDTAB
0
TABLE
2
APPID
5
9
100
AcDbSymbolTable
70
2
0
APPID
5
12
100
AcDbSymbolTableRecord
100
AcDbRegAppTableRecord
2
ACAD
70
0
0
ENDTAB
0
TABLE
2
DIMSTYLE
5
A
100
AcDbSymbolTable
70
1
0
ENDTAB
0
TABLE
2
BLOCK_RECORD
5
1
100
AcDbSymbolTable
70
1
0
BLOCK_RECORD
5
1F
100
AcDbSymbolTableRecord
100
AcDbBlockTableRecord
2
*MODEL_SPACE
0
BLOCK_RECORD
5
1B
100
AcDbSymbolTableRecord
100
AcDbBlockTableRecord
2
*PAPER_SPACE
0
ENDTAB
0
ENDSEC
0
SECTION
2
BLOCKS
0
BLOCK
5
20
100
AcDbEntity
100
AcDbBlockBegin
2
*MODEL_SPACE
0
ENDBLK
5
21
100
AcDbEntity
100
AcDbBlockEnd
0
BLOCK
5
1C
100
AcDbEntity
100
AcDbBlockBegin
2
*PAPER_SPACE
0
ENDBLK
5
1D
100
AcDbEntity
100
AcDbBlockEnd
0
ENDSEC
0
SECTION
2
ENTITIES
0
LINE
5
100
100
AcDbEntity
8
0
100
AcDbLine
10
-200.0348095602503
20
2.1523698894072609
30
0
11
-200.0348095602503
21
-0.00022717680982137223
31
0
0
SPLINE
5
101
100
AcDbEntity
8
0
100
AcDbSpline
70
4
71
5
72
862
73
856
74
0
42
0.000000001
43
0.0000000001
44
0.0000000001
40
0.025075606072429989
40
0.025075606072429989
40
0.025075606072429989
40
0.025075606072429989
40
0.025075606072429989
40
0.025075606072429989
40
0.025698324022346359
40
0.026815642458100548
40
0.027932960893854736
40
0.029050279329608925
40
0.030167597765363114
40
0.031284916201117306
40
0.032402234636871495
40
0.033519553072625684
40
0.034636871508379873
40
0.035754189944134061
40
0.03687150837988825
40
0.037988826815642439
40
0.039106145251396628
40
0.040223463687150816
40
0.041340782122905005
40
0.042458100558659194
40
0.043575418994413383
40
0.044692737430167571
40
0.04581005586592176
40
0.046927374301675949
40
0.048044692737430138
40
0.049162011173184327
40
0.050279329608938515
40
0.051396648044692704
40
0.052513966480446893
40
0.053631284916201082
40
0.05474860335195527
40
0.055865921787709459
40
0.056983240223463648
40
0.058100558659217837
40
0.059217877094972025
40
0.060335195530726214
40
0.061452513966480403
40
0.062569832402234599
40
0.063687150837988787
40
0.064804469273742976
40
0.065921787709497165
40
0.067039106145251354
40
0.068156424581005542
40
0.069273743016759731
40
0.07039106145251392
40
0.071508379888268109
40
0.072625698324022298
40
0.073743016759776486
40
0.074860335195530675
40
0.075977653631284864
40
0.077094972067039053
40
0.078212290502793241
40
0.07932960893854743
40
0.080446927374301619
40
0.081564245810055808
40
0.082681564245809996
40
0.083798882681564185
40
0.084916201117318374
40
0.086033519553072563
40
0.087150837988826751
40
0.08826815642458094
40
0.089385474860335129
40
0.090502793296089318
40
0.091620111731843507
40
0.092737430167597695
40
0.093854748603351884
40
0.094972067039106073
40
0.096089385474860262
40
0.09720670391061445
40
0.098324022346368639
40
0.099441340782122828
40
0.10055865921787702
40
0.10167597765363121
40
0.10279329608938539
40
0.10391061452513958
40
0.10502793296089377
40
0.10614525139664796
40
0.10726256983240215
40
0.10837988826815634
40
0.10949720670391053
40
0.11061452513966472
40
0.1117318435754189
40
0.11284916201117309
40
0.11396648044692728
40
0.11508379888268147
40
0.11620111731843566
40
0.11731843575418985
40
0.11843575418994404
40
0.11955307262569823
40
0.12067039106145241
40
0.1217877094972066
40
0.12290502793296079
40
0.12402234636871498
40
0.12513966480446917
40
0.12625698324022336
40
0.12737430167597755
40
0.12849162011173174
40
0.12960893854748592
40
0.13072625698324011
40
0.1318435754189943
40
0.13296089385474849
40
0.13407821229050268
40
0.13519553072625687
40
0.13631284916201106
40
0.13743016759776525
40
0.13854748603351943
40
0.13966480446927362
40
0.14078212290502781
40
0.141899441340782
40
0.14301675977653619
40
0.14413407821229038
40
0.14525139664804457
40
0.14636871508379876
40
0.14748603351955294
40
0.14860335195530713
40
0.14972067039106132
40
0.15083798882681551
40
0.1519553072625697
40
0.15307262569832389
40
0.15418994413407808
40
0.15530726256983227
40
0.15642458100558645
40
0.15754189944134064
40
0.15865921787709483
40
0.15977653631284902
40
0.16089385474860321
40
0.1620111731843574
40
0.16312849162011159
40
0.16424581005586578
40
0.16536312849161997
40
0.16648044692737415
40
0.16759776536312834
40
0.16871508379888253
40
0.16983240223463672
40
0.17094972067039091
40
0.1720670391061451
40
0.17318435754189929
40
0.17430167597765348
40
0.17541899441340766
40
0.17653631284916185
40
0.17765363128491604
40
0.17877094972067023
40
0.17988826815642442
40
0.18100558659217861
40
0.1821229050279328
40
0.18324022346368699
40
0.18435754189944117
40
0.18547486033519536
40
0.18659217877094955
40
0.18770949720670374
40
0.18882681564245793
40
0.18994413407821212
40
0.19106145251396631
40
0.1921787709497205
40
0.19329608938547468
40
0.19441340782122887
40
0.19553072625698306
40
0.19664804469273725
40
0.19776536312849144
40
0.19888268156424563
40
0.19999999999999982
40
0.20111731843575401
40
0.20223463687150819
40
0.20335195530726238
40
0.20446927374301657
40
0.20558659217877076
40
0.20670391061452495
40
0.20782122905027914
40
0.20893854748603333
40
0.21005586592178752
40
0.2111731843575417
40
0.21229050279329589
40
0.21340782122905008
40
0.21452513966480427
40
0.21564245810055846
40
0.21675977653631265
40
0.21787709497206684
40
0.21899441340782103
40
0.22011173184357521
40
0.2212290502793294
40
0.22234636871508359
40
0.22346368715083778
40
0.22458100558659197
40
0.22569832402234616
40
0.22681564245810035
40
0.22793296089385454
40
0.22905027932960872
40
0.23016759776536291
40
0.2312849162011171
40
0.23240223463687129
40
0.23351955307262548
40
0.23463687150837967
40
0.23575418994413386
40
0.23687150837988805
40
0.23798882681564223
40
0.23910614525139642
40
0.24022346368715061
40
0.2413407821229048
40
0.24245810055865899
40
0.24357541899441318
40
0.24469273743016737
40
0.24581005586592156
40
0.24692737430167574
40
0.24804469273742993
40
0.24916201117318412
40
0.25027932960893834
40
0.25139664804469253
40
0.25251396648044672
40
0.25363128491620091
40
0.25474860335195509
40
0.25586592178770928
40
0.25698324022346347
40
0.25810055865921766
40
0.25921787709497185
40
0.26033519553072604
40
0.26145251396648023
40
0.26256983240223442
40
0.2636871508379886
40
0.26480446927374279
40
0.26592178770949698
40
0.26703910614525117
40
0.26815642458100536
40
0.26927374301675955
40
0.27039106145251374
40
0.27150837988826793
40
0.27262569832402211
40
0.2737430167597763
40
0.27486033519553049
40
0.27597765363128468
40
0.27709497206703887
40
0.27821229050279306
40
0.27932960893854725
40
0.28044692737430144
40
0.28156424581005562
40
0.28268156424580981
40
0.283798882681564
40
0.28491620111731819
40
0.28603351955307238
40
0.28715083798882657
40
0.28826815642458076
40
0.28938547486033495
40
0.29050279329608913
40
0.29162011173184332
40
0.29273743016759751
40
0.2938547486033517
40
0.29497206703910589
40
0.29608938547486008
40
0.29720670391061427
40
0.29832402234636846
40
0.29944134078212264
40
0.30055865921787683
40
0.30167597765363102
40
0.30279329608938521
40
0.3039106145251394
40
0.30502793296089359
40
0.30614525139664778
40
0.30726256983240197
40
0.30837988826815615
40
0.30949720670391034
40
0.31061452513966453
40
0.31173184357541872
40
0.31284916201117291
40
0.3139664804469271
40
0.31508379888268129
40
0.31620111731843548
40
0.31731843575418966
40
0.31843575418994385
40
0.31955307262569804
40
0.32067039106145223
40
0.32178770949720642
40
0.32290502793296061
40
0.3240223463687148
40
0.32513966480446899
40
0.32625698324022318
40
0.32737430167597736
40
0.32849162011173155
40
0.32960893854748574
40
0.33072625698323993
40
0.33184357541899412
40
0.33296089385474831
40
0.3340782122905025
40
0.33519553072625669
40
0.33631284916201087
40
0.33743016759776506
40
0.33854748603351925
40
0.33966480446927344
40
0.34078212290502763
40
0.34189944134078182
40
0.34301675977653601
40
0.3441340782122902
40
0.34525139664804438
40
0.34636871508379857
40
0.34748603351955276
40
0.34860335195530695
40
0.34972067039106114
40
0.35083798882681533
40
0.35195530726256952
40
0.35307262569832371
40
0.35418994413407789
40
0.35530726256983208
40
0.35642458100558627
40
0.35754189944134046
40
0.35865921787709465
40
0.35977653631284884
40
0.36089385474860303
40
0.36201117318435722
40
0.3631284916201114
40
0.36424581005586559
40
0.36536312849161978
40
0.36648044692737397
40
0.36759776536312816
40
0.36871508379888235
40
0.36983240223463654
40
0.37094972067039073
40
0.37206703910614491
40
0.3731843575418991
40
0.37430167597765329
40
0.37541899441340748
40
0.37653631284916167
40
0.37765363128491586
40
0.37877094972067005
40
0.37988826815642424
40
0.38100558659217842
40
0.38212290502793261
40
0.3832402234636868
40
0.38435754189944099
40
0.38547486033519518
40
0.38659217877094937
40
0.38770949720670356
40
0.38882681564245775
40
0.38994413407821193
40
0.39106145251396612
40
0.39217877094972031
40
0.3932960893854745
40
0.39441340782122869
40
0.39553072625698288
40
0.39664804469273707
40
0.39776536312849126
40
0.39888268156424544
40
0.39999999999999963
40
0.40111731843575382
40
0.40223463687150801
40
0.4033519553072622
40
0.40446927374301639
40
0.40558659217877058
40
0.40670391061452477
40
0.40782122905027895
40
0.40893854748603314
40
0.41005586592178733
40
0.41117318435754152
40
0.41229050279329571
40
0.4134078212290499
40
0.41452513966480409
40
0.41564245810055828
40
0.41675977653631247
40
0.41787709497206665
40
0.41899441340782084
40
0.42011173184357503
40
0.42122905027932922
40
0.42234636871508341
40
0.4234636871508376
40
0.42458100558659179
40
0.42569832402234598
40
0.42681564245810016
40
0.42793296089385435
40
0.42905027932960854
40
0.43016759776536273
40
0.43128491620111692
40
0.43240223463687111
40
0.4335195530726253
40
0.43463687150837949
40
0.43575418994413367
40
0.43687150837988786
40
0.43798882681564205
40
0.43910614525139624
40
0.44022346368715043
40
0.44134078212290462
40
0.44245810055865881
40
0.443575418994413
40
0.44469273743016718
40
0.44581005586592137
40
0.44692737430167556
40
0.44804469273742975
40
0.44916201117318394
40
0.45027932960893813
40
0.45139664804469232
40
0.45251396648044651
40
0.45363128491620069
40
0.45474860335195488
40
0.45586592178770907
40
0.45698324022346326
40
0.45810055865921745
40
0.45921787709497164
40
0.46033519553072583
40
0.46145251396648002
40
0.4625698324022342
40
0.46368715083798839
40
0.46480446927374258
40
0.46592178770949677
40
0.46703910614525096
40
0.46815642458100515
40
0.46927374301675934
40
0.47039106145251353
40
0.47150837988826771
40
0.4726256983240219
40
0.47374301675977609
40
0.47486033519553028
40
0.47597765363128447
40
0.47709497206703866
40
0.47821229050279285
40
0.47932960893854704
40
0.48044692737430122
40
0.48156424581005541
40
0.4826815642458096
40
0.48379888268156379
40
0.48491620111731798
40
0.48603351955307217
40
0.48715083798882636
40
0.48826815642458055
40
0.48938547486033473
40
0.49050279329608892
40
0.49162011173184311
40
0.4927374301675973
40
0.49385474860335149
40
0.49497206703910568
40
0.49608938547485987
40
0.49720670391061406
40
0.49832402234636825
40
0.49944134078212243
40
0.50055865921787668
40
0.50167597765363092
40
0.50279329608938517
40
0.50391061452513941
40
0.50502793296089366
40
0.5061452513966479
40
0.50726256983240214
40
0.50837988826815639
40
0.50949720670391063
40
0.51061452513966488
40
0.51173184357541912
40
0.51284916201117337
40
0.51396648044692761
40
0.51508379888268185
40
0.5162011173184361
40
0.51731843575419034
40
0.51843575418994459
40
0.51955307262569883
40
0.52067039106145308
40
0.52178770949720732
40
0.52290502793296156
40
0.52402234636871581
40
0.52513966480447005
40
0.5262569832402243
40
0.52737430167597854
40
0.52849162011173278
40
0.52960893854748703
40
0.53072625698324127
40
0.53184357541899552
40
0.53296089385474976
40
0.53407821229050401
40
0.53519553072625825
40
0.53631284916201249
40
0.53743016759776674
40
0.53854748603352098
40
0.53966480446927523
40
0.54078212290502947
40
0.54189944134078372
40
0.54301675977653796
40
0.5441340782122922
40
0.54525139664804645
40
0.54636871508380069
40
0.54748603351955494
40
0.54860335195530918
40
0.54972067039106343
40
0.55083798882681767
40
0.55195530726257191
40
0.55307262569832616
40
0.5541899441340804
40
0.55530726256983465
40
0.55642458100558889
40
0.55754189944134314
40
0.55865921787709738
40
0.55977653631285162
40
0.56089385474860587
40
0.56201117318436011
40
0.56312849162011436
40
0.5642458100558686
40
0.56536312849162285
40
0.56648044692737709
40
0.56759776536313133
40
0.56871508379888558
40
0.56983240223463982
40
0.57094972067039407
40
0.57206703910614831
40
0.57318435754190256
40
0.5743016759776568
40
0.57541899441341104
40
0.57653631284916529
40
0.57765363128491953
40
0.57877094972067378
40
0.57988826815642802
40
0.58100558659218227
40
0.58212290502793651
40
0.58324022346369075
40
0.584357541899445
40
0.58547486033519924
40
0.58659217877095349
40
0.58770949720670773
40
0.58882681564246198
40
0.58994413407821622
40
0.59106145251397046
40
0.59217877094972471
40
0.59329608938547895
40
0.5944134078212332
40
0.59553072625698744
40
0.59664804469274169
40
0.59776536312849593
40
0.59888268156425017
40
0.60000000000000442
40
0.60111731843575866
40
0.60223463687151291
40
0.60335195530726715
40
0.6044692737430214
40
0.60558659217877564
40
0.60670391061452988
40
0.60782122905028413
40
0.60893854748603837
40
0.61005586592179262
40
0.61117318435754686
40
0.61229050279330111
40
0.61340782122905535
40
0.61452513966480959
40
0.61564245810056384
40
0.61675977653631808
40
0.61787709497207233
40
0.61899441340782657
40
0.62011173184358082
40
0.62122905027933506
40
0.6223463687150893
40
0.62346368715084355
40
0.62458100558659779
40
0.62569832402235204
40
0.62681564245810628
40
0.62793296089386053
40
0.62905027932961477
40
0.63016759776536901
40
0.63128491620112326
40
0.6324022346368775
40
0.63351955307263175
40
0.63463687150838599
40
0.63575418994414024
40
0.63687150837989448
40
0.63798882681564872
40
0.63910614525140297
40
0.64022346368715721
40
0.64134078212291146
40
0.6424581005586657
40
0.64357541899441995
40
0.64469273743017419
40
0.64581005586592843
40
0.64692737430168268
40
0.64804469273743692
40
0.64916201117319117
40
0.65027932960894541
40
0.65139664804469966
40
0.6525139664804539
40
0.65363128491620814
40
0.65474860335196239
40
0.65586592178771663
40
0.65698324022347088
40
0.65810055865922512
40
0.65921787709497937
40
0.66033519553073361
40
0.66145251396648785
40
0.6625698324022421
40
0.66368715083799634
40
0.66480446927375059
40
0.66592178770950483
40
0.66703910614525908
40
0.66815642458101332
40
0.66927374301676756
40
0.67039106145252181
40
0.67150837988827605
40
0.6726256983240303
40
0.67374301675978454
40
0.67486033519553879
40
0.67597765363129303
40
0.67709497206704727
40
0.67821229050280152
40
0.67932960893855576
40
0.68044692737431001
40
0.68156424581006425
40
0.6826815642458185
40
0.68379888268157274
40
0.68491620111732698
40
0.68603351955308123
40
0.68715083798883547
40
0.68826815642458972
40
0.68938547486034396
40
0.69050279329609821
40
0.69162011173185245
40
0.69273743016760669
40
0.69385474860336094
40
0.69497206703911518
40
0.69608938547486943
40
0.69720670391062367
40
0.69832402234637792
40
0.69944134078213216
40
0.7005586592178864
40
0.70167597765364065
40
0.70279329608939489
40
0.70391061452514914
40
0.70502793296090338
40
0.70614525139665762
40
0.70726256983241187
40
0.70837988826816611
40
0.70949720670392036
40
0.7106145251396746
40
0.71173184357542885
40
0.71284916201118309
40
0.71396648044693733
40
0.71508379888269158
40
0.71620111731844582
40
0.71731843575420007
40
0.71843575418995431
40
0.71955307262570856
40
0.7206703910614628
40
0.72178770949721704
40
0.72290502793297129
40
0.72402234636872553
40
0.72513966480447978
40
0.72625698324023402
40
0.72737430167598827
40
0.72849162011174251
40
0.72960893854749675
40
0.730726256983251
40
0.73184357541900524
40
0.73296089385475949
40
0.73407821229051373
40
0.73519553072626798
40
0.73631284916202222
40
0.73743016759777646
40
0.73854748603353071
40
0.73966480446928495
40
0.7407821229050392
40
0.74189944134079344
40
0.74301675977654769
40
0.74413407821230193
40
0.74525139664805617
40
0.74636871508381042
40
0.74748603351956466
40
0.74860335195531891
40
0.74972067039107315
40
0.7508379888268274
40
0.75195530726258164
40
0.75307262569833588
40
0.75418994413409013
40
0.75530726256984437
40
0.75642458100559862
40
0.75754189944135286
40
0.75865921787710711
40
0.75977653631286135
40
0.76089385474861559
40
0.76201117318436984
40
0.76312849162012408
40
0.76424581005587833
40
0.76536312849163257
40
0.76648044692738682
40
0.76759776536314106
40
0.7687150837988953
40
0.76983240223464955
40
0.77094972067040379
40
0.77206703910615804
40
0.77318435754191228
40
0.77430167597766653
40
0.77541899441342077
40
0.77653631284917501
40
0.77765363128492926
40
0.7787709497206835
40
0.77988826815643775
40
0.78100558659219199
40
0.78212290502794624
40
0.78324022346370048
40
0.78435754189945472
40
0.78547486033520897
40
0.78659217877096321
40
0.78770949720671746
40
0.7888268156424717
40
0.78994413407822595
40
0.79106145251398019
40
0.79217877094973443
40
0.79329608938548868
40
0.79441340782124292
40
0.79553072625699717
40
0.79664804469275141
40
0.79776536312850566
40
0.7988826815642599
40
0.80000000000001414
40
0.80111731843576839
40
0.80223463687152263
40
0.80335195530727688
40
0.80446927374303112
40
0.80558659217878537
40
0.80670391061453961
40
0.80782122905029385
40
0.8089385474860481
40
0.81005586592180234
40
0.81117318435755659
40
0.81229050279331083
40
0.81340782122906508
40
0.81452513966481932
40
0.81564245810057356
40
0.81675977653632781
40
0.81787709497208205
40
0.8189944134078363
40
0.82011173184359054
40
0.82122905027934479
40
0.82234636871509903
40
0.82346368715085327
40
0.82458100558660752
40
0.82569832402236176
40
0.82681564245811601
40
0.82793296089387025
40
0.8290502793296245
40
0.83016759776537874
40
0.83128491620113298
40
0.83240223463688723
40
0.83351955307264147
40
0.83463687150839572
40
0.83575418994414996
40
0.83687150837990421
40
0.83798882681565845
40
0.83910614525141269
40
0.84022346368716694
40
0.84134078212292118
40
0.84245810055867543
40
0.84357541899442967
40
0.84469273743018392
40
0.84581005586593816
40
0.8469273743016924
40
0.84804469273744665
40
0.84916201117320089
40
0.85027932960895514
40
0.85139664804470938
40
0.85251396648046363
40
0.85363128491621787
40
0.85474860335197211
40
0.85586592178772636
40
0.8569832402234806
40
0.85810055865923485
40
0.85921787709498909
40
0.86033519553074334
40
0.86145251396649758
40
0.86256983240225182
40
0.86368715083800607
40
0.86480446927376031
40
0.86592178770951456
40
0.8670391061452688
40
0.86815642458102305
40
0.86927374301677729
40
0.87039106145253153
40
0.87150837988828578
40
0.87262569832404002
40
0.87374301675979427
40
0.87486033519554851
40
0.87597765363130276
40
0.877094972067057
40
0.87821229050281124
40
0.87932960893856549
40
0.88044692737431973
40
0.88156424581007398
40
0.88268156424582822
40
0.88379888268158247
40
0.88491620111733671
40
0.88603351955309095
40
0.8871508379888452
40
0.88826815642459944
40
0.88938547486035369
40
0.89050279329610793
40
0.89162011173186217
40
0.89273743016761642
40
0.89385474860337066
40
0.89497206703912491
40
0.89608938547487915
40
0.8972067039106334
40
0.89832402234638764
40
0.89944134078214188
40
0.90055865921789613
40
0.90167597765365037
40
0.90279329608940462
40
0.90391061452515886
40
0.90502793296091311
40
0.90614525139666735
40
0.90726256983242159
40
0.90837988826817584
40
0.90949720670393008
40
0.91061452513968433
40
0.91173184357543857
40
0.91284916201119282
40
0.91396648044694706
40
0.9150837988827013
40
0.91620111731845555
40
0.91731843575420979
40
0.91843575418996404
40
0.91955307262571828
40
0.92067039106147253
40
0.92178770949722677
40
0.92290502793298101
40
0.92402234636873526
40
0.9251396648044895
40
0.92625698324024375
40
0.92737430167599799
40
0.92849162011175224
40
0.92960893854750648
40
0.93072625698326072
40
0.93184357541901497
40
0.93296089385476921
40
0.93407821229052346
40
0.9351955307262777
40
0.93631284916203195
40
0.93743016759778619
40
0.93854748603354043
40
0.93966480446929468
40
0.94078212290504892
40
0.94189944134080317
40
0.94301675977655741
40
0.94413407821231166
40
0.9452513966480659
40
0.94636871508382014
40
0.94748603351957439
40
0.94860335195532863
40
0.94972067039108288
40
0.95083798882683712
40
0.95195530726259137
40
0.95307262569834561
40
0.95418994413409985
40
0.9553072625698541
40
0.95642458100560834
40
0.95754189944136259
40
0.95865921787711683
40
0.95977653631287108
40
0.96089385474862532
40
0.96201117318437956
40
0.96312849162013381
40
0.96424581005588805
40
0.9653631284916423
40
0.96648044692739654
40
0.96759776536315079
40
0.96871508379890503
40
0.96983240223465927
40
0.97094972067041352
40
0.97206703910616776
40
0.97318435754192201
40
0.97430167597767625
40
0.97516984816755881
40
0.97516984816755881
40
0.97516984816755881
40
0.97516984816755881
40
0.97516984816755881
40
0.97516984816755881
41
1
41
1
41
1
41
1
41
1
41
1
41
1
41
1
41
1
41
1
41
1
41
1
41
1
41
1
41
1
41
1
41
1
41
1
41
1
41
1
41
1
41
1
41
1
41
1
41
1
41
1
41
1
41
1
41
1
41
1
41
1
41
1
41
1
41
1
41
1
41
1
41
1
41
1
41
1
41
1
41
1
41
1
41
1
41
1
41
1
41
1
41
1
41
1
41
1
41
1
41
1
41
1
41
1
41
1
41
1
41
1
41
1
41
1
41
1
41
1
41
1
41
1
41
1
41
1
41
1
41
1
41
1
41
1
41
1
41
1
41
1
41
1
41
1
41
1
41
1
41
1
41
1
41
1
41
1
41
1
41
1
41
1
41
1
41
1
41
1
41
1
41
1
41
1
41
1
41
1
41
1
41
1
41
1
41
1
41
1
41
1
41
1
41
1
41
1
41
1
41
1
41
1
41
1
41
1
41
1
41
1
41
1
41
1
41
1
41
1
41
1
41
1
41
1
41
1
41
1
41
1
41
1
41
1
41
1
41
1
41
1
41
1
41
1
41
1
41
1
41
1
41
1
41
1
41
1
41
1
41
1
41
1
41
1
41
1
41
1
41
1
41
1
41
1
41
1
41
1
41
1
41
1
41
1
41
1
41
1
41
1
41
1
41
1
41
1
41
1
41
1
41
1
41
1
41
1
41
1
41
1
41
1
41
1
41
1
41
1
41
1
41
1
41
1
41
1
41
1
41
1
41
1
41
1
41
1
41
1
41
1
41
1
41
1
41
1
41
1
41
1
41
1
41
1
41
1
41
1
41
1
41
1
41
1
41
1
41
1
41
1
41
1
41
1
41
1
41
1
41
1
41
1
41
1
41
1
41
1
41
1
41
1
41
1
41
1
41
1
41
1
41
1
41
1
41
1
41
1
41
1
41
1
41
1
41
1
41
1
41
1
41
1
41
1
41
1
41
1
41
1
41
1
41
1
41
1
41
1
41
1
41
1
41
1
41
1
41
1
41
1
41
1
41
1
41
1
41
1
41
1
41
1
41
1
41
1
41
1
41
1
41
1
41
1
41
1
41
1
41
1
41
1
41
1
41
1
41
1
41
1
41
1
41
1
41
1
41
1
41
1
41
1
41
1
41
1
41
1
41
1
41
1
41
1
41
1
41
1
41
1
41
1
41
1
41
1
41
1
41
1
41
1
41
1
41
1
41
1
41
1
41
1
41
1
41
1
41
1
41
1
41
1
41
1
41
1
41
1
41
1
41
1
41
1
41
1
41
1
41
1
41
1
41
1
41
1
41
1
41
1
41
1
41
1
41
1
41
1
41
1
41
1
41
1
41
1
41
1
41
1
41
1
41
1
41
1
41
1
41
1
41
1
41
1
41
1
41
1
41
1
41
1
41
1
41
1
41
1
41
1
41
1
41
1
41
1
41
1
41
1
41
1
41
1
41
1
41
1
41
1
41
1
41
1
41
1
41
1
41
1
41
1
41
1
41
1
41
1
41
1
41
1
41
1
41
1
41
1
41
1
41
1
41
1
41
1
41
1
41
1
41
1
41
1
41
1
41
1
41
1
41
1
41
1
41
1
41
1
41
1
41
1
41
1
41
1
41
1
41
1
41
1
41
1
41
1
41
1
41
1
41
1
41
1
41
1
41
1
41
1
41
1
41
1
41
1
41
1
41
1
41
1
41
1
41
1
41
1
41
1
41
1
41
1
41
1
41
1
41
1
41
1
41
1
41
1
41
1
41
1
41
1
41
1
41
1
41
1
41
1
41
1
41
1
41
1
41
1
41
1
41
1
41
1
41
1
41
1
41
1
41
1
41
1
41
1
41
1
41
1
41
1
41
1
41
1
41
1
41
1
41
1
41
1
41
1
41
1
41
1
41
1
41
1
41
1
41
1
41
1
41
1
41
1
41
1
41
1
41
1
41
1
41
1
41
1
41
1
41
1
41
1
41
1
41
1
41
1
41
1
41
1
41
1
41
1
41
1
41
1
41
1
41
1
41
1
41
1
41
1
41
1
41
1
41
1
41
1
41
1
41
1
41
1
41
1
41
1
41
1
41
1
41
1
41
1
41
1
41
1
41
1
41
1
41
1
41
1
41
1
41
1
41
1
41
1
41
1
41
1
41
1
41
1
41
1
41
1
41
1
41
1
41
1
41
1
41
1
41
1
41
1
41
1
41
1
41
1
41
1
41
1
41
1
41
1
41
1
41
1
41
1
41
1
41
1
41
1
41
1
41
1
41
1
41
1
41
1
41
1
41
1
41
1
41
1
41
1
41
1
41
1
41
1
41
1
41
1
41
1
41
1
41
1
41
1
41
1
41
1
41
1
41
1
41
1
41
1
41
1
41
1
41
1
41
1
41
1
41
1
41
1
41
1
41
1
41
1
41
1
41
1
41
1
41
1
41
1
41
1
41
1
41
1
41
1
41
1
41
1
41
1
41
1
41
1
41
1
41
1
41
1
41
1
41
1
41
1
41
1
41
1
41
1
41
1
41
1
41
1
41
1
41
1
41
1
41
1
41
1
41
1
41
1
41
1
41
1
41
1
41
1
41
1
41
1
41
1
41
1
41
1
41
1
41
1
41
1
41
1
41
1
41
1
41
1
41
1
41
1
41
1
41
1
41
1
41
1
41
1
41
1
41
1
41
1
41
1
41
1
41
1
41
1
41
1
41
1
41
1
41
1
41
1
41
1
41
1
41
1
41
1
41
1
41
1
41
1
41
1
41
1
41
1
41
1
41
1
41
1
41
1
41
1
41
1
41
1
41
1
41
1
41
1
41
1
41
1
41
1
41
1
41
1
41
1
41
1
41
1
41
1
41
1
41
1
41
1
41
1
41
1
41
1
41
1
41
1
41
1
41
1
41
1
41
1
41
1
41
1
41
1
41
1
41
1
41
1
41
1
41
1
41
1
41
1
41
1
41
1
41
1
41
1
41
1
41
1
41
1
41
1
41
1
41
1
41
1
41
1
41
1
41
1
41
1
41
1
41
1
41
1
41
1
41
1
41
1
41
1
41
1
41
1
41
1
41
1
41
1
41
1
41
1
41
1
41
1
41
1
41
1
41
1
41
1
41
1
41
1
41
1
41
1
41
1
41
1
41
1
41
1
41
1
41
1
41
1
41
1
41
1
41
1
41
1
41
1
41
1
41
1
41
1
41
1
41
1
41
1
41
1
41
1
41
1
41
1
41
1
41
1
41
1
41
1
41
1
41
1
41
1
41
1
41
1
41
1
41
1
41
1
41
1
41
1
41
1
41
1
41
1
41
1
41
1
41
1
41
1
41
1
41
1
41
1
41
1
41
1
41
1
41
1
41
1
41
1
41
1
41
1
41
1
41
1
41
1
41
1
41
1
41
1
41
1
41
1
41
1
41
1
41
1
41
1
41
1
41
1
41
1
41
1
41
1
41
1
41
1
41
1
41
1
41
1
41
1
41
1
41
1
41
1
41
1
41
1
41
1
41
1
41
1
41
1
41
1
41
1
41
1
41
1
41
1
41
1
41
1
41
1
41
1
41
1
41
1
41
1
41
1
41
1
41
1
41
1
41
1
41
1
41
1
41
1
41
1
41
1
41
1
41
1
41
1
41
1
41
1
41
1
41
1
41
1
41
1
41
1
41
1
41
1
41
1
41
1
41
1
41
1
41
1
41
1
41
1
41
1
41
1
41
1
41
1
41
1
41
1
41
1
41
1
41
1
41
1
41
1
41
1
41
1
41
1
41
1
41
1
41
1
41
1
41
1
41
1
41
1
41
1
41
1
41
1
41
1
41
1
41
1
41
1
41
1
41
1
41
1
41
1
41
1
41
1
41
1
41
1
10
-200.0348095602503
20
2.1523698894072609
30
0
10
-199.97955698707486
20
2.1614041472280174
30
0
10
-199.82515264656797
20
2.1866506539204815
30
0
10
-199.57152835185951
20
2.2281210325347169
30
0
10
-199.21850561623279
20
2.2858454645812083
30
0
10
-198.76567334230828
20
2.359892675620844
30
0
10
-198.26800587463782
20
2.4412737865791407
30
0
10
-197.76946428167219
20
2.5227991404366885
30
0
10
-197.27010537939591
20
2.6044580998049223
30
0
10
-196.77004315544053
20
2.6862307679697093
30
0
10
-196.26941863654667
20
2.7680932290201552
30
0
10
-195.7683714400838
20
2.8500225299544661
30
0
10
-195.26701393890565
20
2.9320011619448461
30
0
10
-194.76543760193215
20
3.0140156439955268
30
0
10
-194.26371608087013
20
3.0960557045246615
30
0
10
-193.76190966576615
20
3.1781132021997545
30
0
10
-193.26006890395345
20
3.2601812259474681
30
0
10
-192.75823920982231
20
3.3422529484206738
30
0
10
-192.25646235315759
20
3.4243213089285036
30
0
10
-191.75477556937577
20
3.5063793364008551
30
0
10
-191.25321137106707
20
3.5884202860244918
30
0
10
-190.75179701737329
20
3.670437860550078
30
0
10
-190.25055425587323
20
3.7524263764081933
30
0
10
-189.74949862582133
20
3.8343810019124236
30
0
10
-189.24865935914855
20
3.9162948488956162
30
0
10
-188.74809858321748
20
3.998156167153442
30
0
10
-188.24793256794973
20
4.079945237672379
30
0
10
-187.74834805290394
20
4.1616319906724693
30
0
10
-187.2496305963746
20
4.2431718526416722
30
0
10
-186.75215147252015
20
4.3245076995731129
30
0
10
-186.25629906336167
20
4.4055799849323103
30
0
10
-185.76242450955226
20
4.4863347697188098
30
0
10
-185.27078059072812
20
4.5667327442797925
30
0
10
-184.78146581506877
20
4.6467574957732278
30
0
10
-184.29436004883942
20
4.7264249882407592
30
0
10
-183.80918687714205
20
4.8057748867890133
30
0
10
-183.32558253254848
20
4.8848609197540647
30
0
10
-182.84316571718048
20
4.9637411623616448
30
0
10
-182.36159965670933
20
5.042469317388619
30
0
10
-181.8806758037417
20
5.1210831793400917
30
0
10
-181.40031139263891
20
5.1996043337520357
30
0
10
-180.92047697268259
20
5.2780470065180287
30
0
10
-180.44114199495561
20
5.3564245317430235
30
0
10
-179.96221711708853
20
5.4347563060506481
30
0
10
-179.48348808409901
20
5.5130757037532963
30
0
10
-179.00458350100988
20
5.5914339820885264
30
0
10
-178.52508075327677
20
5.669887849045999
30
0
10
-178.04458920285984
20
5.7484896493738482
30
0
10
-177.56284519513682
20
5.8272763286891252
30
0
10
-177.07979530418328
20
5.906259372099302
30
0
10
-176.59570249372192
20
5.9854131102572179
30
0
10
-176.11101618726775
20
6.0646797447035663
30
0
10
-175.62622007887495
20
6.1439763626865531
30
0
10
-175.14167907485694
20
6.223201060564322
30
0
10
-174.65750643373161
20
6.3022398614536463
30
0
10
-174.17337331711661
20
6.3809722597146674
30
0
10
-173.68853982421274
20
6.4592814809620958
30
0
10
-173.20209408960264
20
6.537068941991774
30
0
10
-172.71313642983182
20
6.614267807426093
30
0
10
-172.22098080397191
20
6.6908563734712532
30
0
10
-171.72536108323214
20
6.7668728069747699
30
0
10
-171.22659963895592
20
6.8424255607393132
30
0
10
-170.72540391226181
20
6.9176644002377969
30
0
10
-170.22269989039845
20
6.9927555100870888
30
0
10
-169.71944445649612
20
7.0678538432968825
30
0
10
-169.2164626962192
20
7.1430793816889873
30
0
10
-168.71423466553151
20
7.2184848883346433
30
0
10
-168.21287818177518
20
7.2940572037417493
30
0
10
-167.71227516678414
20
7.3697431792655363
30
0
10
-167.21215631653303
20
7.4454684647684335
30
0
10
-166.71220260496557
20
7.5211591598856753
30
0
10
-166.21214033063038
20
7.5967624227265871
30
0
10
-165.71183680792902
20
7.6722670040485692
30
0
10
-165.21126585868498
20
7.7476909845319248
30
0
10
-164.71047686837667
20
7.8230704664301189
30
0
10
-164.20956152625664
20
7.8984474637841373
30
0
10
-163.70862371804125
20
7.9738591334441091
30
0
10
-163.20774273405982
20
8.0493239702871975
30
0
10
-162.70695987887805
20
8.1248387835337184
30
0
10
-162.20629058064446
20
8.2003874724042642
30
0
10
-161.70572975379
20
8.2759466511835651
30
0
10
-161.20525995092169
20
8.3514926356528534
30
0
10
-160.70485822724214
20
8.4270076659645596
30
0
10
-160.20450381298718
20
8.502486945652862
30
0
10
-159.70417991542865
20
8.5779352925333097
30
0
10
-159.20387517423796
20
8.6533632294691127
30
0
10
-158.7035853705313
20
8.7287831426418911
30
0
10
-158.20331472492387
20
8.8042057113559977
30
0
10
-157.70307811183068
20
8.8796354923019702
30
0
10
-157.20290027443099
20
8.9550694305849916
30
0
10
-156.70281023501602
20
9.0305000684619827
30
0
10
-156.20283690870332
20
9.1059176255952519
30
0
10
-155.70300405869762
20
9.1813125965528002
30
0
10
-155.20332593647814
20
9.2566779820887977
30
0
10
-154.70380156232591
20
9.332012061078407
30
0
10
-154.20442039123051
20
9.4073170317089811
30
0
10
-153.70516966451211
20
9.4825970422308288
30
0
10
-153.20604136868567
20
9.5578563849905507
30
0
10
-152.70703891556525
20
9.6330977335495973
30
0
10
-152.20818501256554
20
9.7083200919094015
30
0
10
-151.70952547817922
20
9.7835177598729626
30
0
10
-151.21112414919983
20
9.8586815527381884
30
0
10
-150.71305961470765
20
9.9337995485777704
30
0
10
-150.21542124044345
20
10.008858039583542
30
0
10
-149.71830545226842
20
10.083842360146063
30
0
10
-149.22181201624556
20
10.158737862655876
30
0
10
-148.72603978307637
20
10.233530050967518
30
0
10
-148.23108269014446
20
10.308204502809051
30
0
10
-147.73702492330364
20
10.382746914959746
30
0
10
-147.24393812175794
20
10.45714298259313
30
0
10
-146.75187363062233
20
10.531378625513277
30
0
10
-146.26087039008152
20
10.605439149684662
30
0
10
-145.77099847329052
20
10.679305972508924
30
0
10
-145.28239437599217
20
10.752953935371259
30
0
10
-144.79530170430778
20
10.826348187026918
30
0
10
-144.3101046580332
20
10.899441702943403
30
0
10
-143.82737762669979
20
10.97217133331598
30
0
10
-143.34775792345573
20
11.04446977748707
30
0
10
-142.87180307245217
20
11.116278729934304
30
0
10
-142.39984613161405
20
11.187562698355469
30
0
10
-141.93186874630419
20
11.258320072448271
30
0
10
-141.46732436076255
20
11.328601526559442
30
0
10
-141.00517522240204
20
11.398497440453848
30
0
10
-140.54407220278821
20
11.468105426126083
30
0
10
-140.08249211956982
20
11.537502559804256
30
0
10
-139.61889235364166
20
11.606718379166898
30
0
10
-139.15185868934455
20
11.675700947256837
30
0
10
-138.68025284691583
20
11.744310812043663
30
0
10
-138.2033488158242
20
11.812348587034338
30
0
10
-137.72098001563805
20
11.879573799609467
30
0
10
-137.23366541316204
20
11.945727312913627
30
0
10
-136.74278408127066
20
12.010552168569449
30
0
10
-136.25060863562203
20
12.073815291328769
30
0
10
-135.75971709634538
20
12.135330677225276
30
0
10
-135.27250415493464
20
12.194981788854022
30
0
10
-134.7906314231864
20
12.25274562167786
30
0
10
-134.31455506460031
20
12.308712905968584
30
0
10
-133.84288606899565
20
12.363118196730042
30
0
10
-133.3729159713738
20
12.41629869861713
30
0
10
-132.90137560121588
20
12.468638827501188
30
0
10
-132.42514647469318
20
12.520517513005323
30
0
10
-131.94191844452723
20
12.57225922533625
30
0
10
-131.45105377003873
20
12.624071261521305
30
0
10
-130.95354447057599
20
12.676041121128952
30
0
10
-130.45132990198346
20
12.728176303106839
30
0
10
-129.94679859139916
20
12.780431797626848
30
0
10
-129.44222480366568
20
12.832742137191172
30
0
10
-128.93920776818948
20
12.885052709412406
30
0
10
-128.43818313034464
20
12.937347866175681
30
0
10
-127.93878624430084
20
12.989638248501157
30
0
10
-127.44013842814363
20
13.041951745254918
30
0
10
-126.94117417295206
20
13.094322699296978
30
0
10
-126.44092474404644
20
13.146782678471132
30
0
10
-125.93888601531027
20
13.199348525036839
30
0
10
-125.43505384389928
20
13.252020844071577
30
0
10
-124.92973675374158
20
13.304789445218123
30
0
10
-124.42343424291832
20
13.357636734607814
30
0
10
-123.91668891137626
20
13.410541930790123
30
0
10
-123.40994771782124
20
13.46348497773414
30
0
10
-122.90342522916725
20
13.516450446329955
30
0
10
-122.39716624194001
20
13.569426723741021
30
0
10
-121.89109991700172
20
13.622405395388949
30
0
10
-121.38509908904027
20
13.675380535771035
30
0
10
-120.87903295615635
20
13.728348077548986
30
0
10
-120.37283346399767
20
13.781305050083725
30
0
10
-119.86651468336578
20
13.834249241785813
30
0
10
-119.36013773050161
20
13.887179350033067
30
0
10
-118.85379002777667
20
13.940094999941408
30
0
10
-118.34755823965554
20
13.992996827411645
30
0
10
-117.84150506079955
20
14.045886509204738
30
0
10
-117.33564129421094
20
14.098766883320552
30
0
10
-116.82993981592818
20
14.151641178020366
30
0
10
-116.32435374020021
20
14.204512167149627
30
0
10
-115.81883371353213
20
14.257381303422548
30
0
10
-115.31334419724249
20
14.310247969608454
30
0
10
-114.80788350851955
20
14.363108416986631
30
0
10
-114.30249122962897
20
14.415955708310005
30
0
10
-113.79722739199019
20
14.468781906252165
30
0
10
-113.29215779880643
20
14.521579752757914
30
0
10
-112.787336172469
20
14.574344654514672
30
0
10
-112.28278934017206
20
14.627076299091479
30
0
10
-111.77849676931623
20
14.679781045800928
30
0
10
-111.27440166912807
20
14.732469862099276
30
0
10
-110.77043119956434
20
14.785154983690505
30
0
10
-110.26651406336151
20
14.837846911237731
30
0
10
-109.7625982499242
20
14.890551466597874
30
0
10
-109.25867096235584
20
14.94326634550146
30
0
10
-108.75477070746442
20
14.995979356438234
30
0
10
-108.25096626088394
20
15.048673782543272
30
0
10
-107.74734101107049
20
15.101332529864582
30
0
10
-107.2439743238528
20
15.153943060595756
30
0
10
-106.74092619324927
20
15.206501277188067
30
0
10
-106.23821537348607
20
15.25901766639598
30
0
10
-105.73582676151872
20
15.311513121415432
30
0
10
-105.23373290363784
20
15.364009814900273
30
0
10
-104.73191129680649
20
15.416523455619696
30
0
10
-104.23036293189769
20
15.469055348334372
30
0
10
-103.72913149764281
20
15.521583642240346
30
0
10
-103.22831881159999
20
15.574057579823265
30
0
10
-102.72807154804518
20
15.626414873868931
30
0
10
-102.22857068514514
20
15.678596123675865
30
0
10
-101.73002045050539
20
15.730561536787908
30
0
10
-101.23263622897285
20
15.782303995104069
30
0
10
-100.7366360574199
20
15.833870417487558
30
0
10
-100.24221563654774
20
15.885347231345408
30
0
10
-99.749514492288711
20
15.936825713749476
30
0
10
-99.258583617984414
20
15.988372633892837
30
0
10
-98.769355222784412
20
16.040000593846834
30
0
10
-98.281605107053807
20
16.091633996783173
30
0
10
-97.794937891638511
20
16.143090584409457
30
0
10
-97.308875292352454
20
16.194134564585763
30
0
10
-96.822928618585053
20
16.244518903940982
30
0
10
-96.336679942183409
20
16.294033255973957
30
0
10
-95.849853748040488
20
16.342546230750262
30
0
10
-95.362407964073711
20
16.390058649984908
30
0
10
-94.874477575980038
20
16.43667410038055
30
0
10
-94.386292995026153
20
16.48255518514539
30
0
10
-93.898103952201652
20
16.527883243291694
30
0
10
-93.410108355713078
20
16.572819975426011
30
0
10
-92.922361171623109
20
16.617460011779706
30
0
10
-92.434759651583377
20
16.661818669897169
30
0
10
-91.947116905716484
20
16.705860624338634
30
0
10
-91.459212985086666
20
16.749518045579073
30
0
10
-90.970853877416261
20
16.792712689599451
30
0
10
-90.481930046314432
20
16.835377090370518
30
0
10
-89.992466671568593
20
16.877473842708405
30
0
10
-89.502574308627644
20
16.918988224494015
30
0
10
-89.012408678875488
20
16.959923141216201
30
0
10
-88.522125314701569
20
17.000293085277601
30
0
10
-88.031840172533165
20
17.040118726687044
30
0
10
-87.541578014590101
20
17.079420688719061
30
0
10
-87.051283150588489
20
17.118216924972334
30
0
10
-86.560853000027151
20
17.156521454791001
30
0
10
-86.070165065699896
20
17.194342562375045
30
0
10
-85.579104774263911
20
17.231681433723672
30
0
10
-85.087597472210561
20
17.268530089438595
30
0
10
-84.595623587325704
20
17.304871336669798
30
0
10
-84.103196473120207
20
17.340682943549073
30
0
10
-83.610348164535225
20
17.375940917690517
30
0
10
-83.117111735724336
20
17.410623190523516
30
0
10
-82.623505660514326
20
17.444713015622209
30
0
10
-82.129515830140576
20
17.478202793507794
30
0
10
-81.635104625845756
20
17.511092325101043
30
0
10
-81.140221821525884
20
17.543386653327239
30
0
10
-80.644815175108192
20
17.575094026145454
30
0
10
-80.148840378094647
20
17.606223867953901
30
0
10
-79.652273181966834
20
17.636784600856821
30
0
10
-79.155113152563445
20
17.666782104536999
30
0
10
-78.657378657131275
20
17.696218860848397
30
0
10
-78.159104206372518
20
17.725092907212673
30
0
10
-77.66033683641389
20
17.753396882579906
30
0
10
-77.16113289894453
20
17.781116999545745
30
0
10
-76.661554681228949
20
17.808232146839849
30
0
10
-76.161666667595995
20
17.83471745210273
30
0
10
-75.661531880658629
20
17.860547633259603
30
0
10
-75.161207996295744
20
17.88570060554834
30
0
10
-74.660744006346093
20
17.910160577387163
30
0
10
-74.160175523967609
20
17.933922365903435
30
0
10
-73.659525421932216
20
17.956990954791298
30
0
10
-73.158808778084264
20
17.979377214092207
30
0
10
-72.658036610554319
20
18.001094699332675
30
0
10
-72.157220064988039
20
18.022156044899099
30
0
10
-71.656374514544837
20
18.042569442534862
30
0
10
-71.155523394993764
20
18.062335335454293
30
0
10
-70.654695908224937
20
18.081448244762775
30
0
10
-70.153925063485588
20
18.099898307905729
30
0
10
-69.653245571028421
20
18.117672951560738
30
0
10
-69.152691842470318
20
18.134758450302968
30
0
10
-68.652295835493064
20
18.151141676700888
30
0
10
-68.152085451065517
20
18.166811142881159
30
0
10
-67.652083343988394
20
18.181757521027375
30
0
10
-67.152305585574197
20
18.195974329464434
30
0
10
-66.652760447914332
20
18.209458520069674
30
0
10
-66.153446992399665
20
18.222211180117462
30
0
10
-65.654354160367205
20
18.234237975088107
30
0
10
-65.155465395101032
20
18.245546824768926
30
0
10
-64.65676272283666
20
18.256145846142207
30
0
10
-64.158231293180876
20
18.266041073506578
30
0
10
-63.659863143795519
20
18.275234550995428
30
0
10
-63.161662758101123
20
18.28372156666531
30
0
10
-62.663644825904498
20
18.2914916182472
30
0
10
-62.165827583802475
20
18.298531496907504
30
0
10
-61.668227388299719
20
18.304827775856069
30
0
10
-61.170853042981001
20
18.310369428537406
30
0
10
-60.673699603315363
20
18.315150668593624
30
0
10
-60.176744293893478
20
18.319172860526404
30
0
10
-59.679953914226999
20
18.322441353952399
30
0
10
-59.183290624929825
20
18.324963033779721
30
0
10
-58.686718628439472
20
18.32674347545009
30
0
10
-58.190209857621831
20
18.327784537339738
30
0
10
-57.693751658437535
20
18.328081075264969
30
0
10
-57.197343981875186
20
18.327622277542517
30
0
10
-56.700993064690842
20
18.32639455236351
30
0
10
-56.204706060518738
20
18.324383984434338
30
0
10
-55.708485727748389
20
18.321578794493288
30
0
10
-55.212324004093063
20
18.317972222410759
30
0
10
-54.716199593410373
20
18.313563850561991
30
0
10
-54.220085896623942
20
18.308356905317318
30
0
10
-53.723956846759734
20
18.30235636037434
30
0
10
-53.227793771261432
20
18.295566674347764
30
0
10
-52.731591364435943
20
18.287989793922716
30
0
10
-52.23536523509545
20
18.279622753254671
30
0
10
-51.739146224702246
20
18.270458522536536
30
0
10
-51.242972933095885
20
18.260487315398219
30
0
10
-50.74688457169465
20
18.249697765439329
30
0
10
-50.250914357448394
20
18.238078090732476
30
0
10
-49.755081020535371
20
18.22561742695094
30
0
10
-49.259387126215969
20
18.212306494842551
30
0
10
-48.763826853002151
20
18.19813733124435
30
0
10
-48.268391436662348
20
18.183103250260363
30
0
10
-47.773075568627057
20
18.167198713731391
30
0
10
-47.277883364689416
20
18.150419234701097
30
0
10
-46.782834575301948
20
18.132761280906355
30
0
10
-46.287960104687556
20
18.114221103752762
30
0
10
-45.7932975944574
20
18.09479362405617
30
0
10
-45.298886815285087
20
18.074471169515864
30
0
10
-44.804765518256147
20
18.053242565014255
30
0
10
-44.310964146863725
20
18.031091349495092
30
0
10
-43.81750515593567
20
18.00799751121874
30
0
10
-43.324405726954211
20
17.983941764286698
30
0
10
-42.831679515696976
20
17.95890918245615
30
0
10
-42.339338748396827
20
17.932892882123202
30
0
10
-41.847396286795153
20
17.905898195132188
30
0
10
-41.355867354266906
20
17.877945103727903
30
0
10
-40.864768937925994
20
17.849060531571915
30
0
10
-40.374119483632583
20
17.819272002079632
30
0
10
-39.883938475914761
20
17.788600506444471
30
0
10
-39.394246069603
20
17.757054308793137
30
0
10
-38.905062692555973
20
17.724620793585959
30
0
10
-38.416408697045476
20
17.691270106034299
30
0
10
-37.928304000978493
20
17.656961910405236
30
0
10
-37.440767763543526
20
17.621651295483584
30
0
10
-36.953817977821558
20
17.585294595648776
30
0
10
-36.467471265690435
20
17.547856321246492
30
0
10
-35.981741992400984
20
17.509311774012776
30
0
10
-35.496640413640229
20
17.469643220255712
30
0
10
-35.012171023386898
20
17.428837608435526
30
0
10
-34.528330889646057
20
17.386883692281032
30
0
10
-34.045107832943565
20
17.343769337838719
30
0
10
-33.562479140401194
20
17.29947895212754
30
0
10
-33.080417801682621
20
17.253994017834472
30
0
10
-32.598898148206075
20
17.207293421702669
30
0
10
-32.117901947717662
20
17.1593538421365
30
0
10
-31.637423780001509
20
17.110150157595683
30
0
10
-31.157478081056894
20
17.059655727910762
30
0
10
-30.678095925777246
20
17.007843523724027
30
0
10
-30.199319046473146
20
16.954687433322224
30
0
10
-29.721194642039393
20
16.900163621378805
30
0
10
-29.243770170754964
20
16.844251615127238
30
0
10
-28.767087377076329
20
16.786936123277314
30
0
10
-28.291179683278905
20
16.728206140148259
30
0
10
-27.816073208468826
20
16.668051309169503
30
0
10
-27.341786742970172
20
16.606458922259005
30
0
10
-26.868332290890411
20
16.543410878258978
30
0
10
-26.395715032821979
20
16.478880138459356
30
0
10
-25.923934587353422
20
16.41282902293884
30
0
10
-25.452990235140831
20
16.3452137444412
30
0
10
-24.982885514435651
20
16.27598790501446
30
0
10
-24.513633010347121
20
16.205106376610697
30
0
10
-24.045259185467241
20
16.132529074782063
30
0
10
-23.577808838210963
20
16.05822461754078
30
0
10
-23.111332099193874
20
15.982166461825836
30
0
10
-22.64587212343568
20
15.904329296264292
30
0
10
-22.181452029438432
20
15.824685230055167
30
0
10
-21.71806328719077
20
15.74320031445551
30
0
10
-21.25565050928347
20
15.659830272581122
30
0
10
-20.794127327165654
20
15.574523055555289
30
0
10
-20.333397000458788
20
15.487222475882181
30
0
10
-19.873372001339064
20
15.397871529383861
30
0
10
-19.413992598877115
20
15.306415699407898
30
0
10
-18.955249519236631
20
15.212806648661727
30
0
10
-18.497183846472339
20
15.117003517611437
30
0
10
-18.039877774296201
20
15.018973163358336
30
0
10
-17.583448290094033
20
14.918690883173857
30
0
10
-17.128039723306163
20
14.816140623806719
30
0
10
-16.673816565300267
20
14.711316186346471
30
0
10
-16.22095716515647
20
14.604218601186712
30
0
10
-15.769648447397229
20
14.494850955517542
30
0
10
-15.320080103915551
20
14.38321373400748
30
0
10
-14.872439469872077
20
14.269300464058992
30
0
10
-14.426904964363361
20
14.153091968204123
30
0
10
-13.983644608566042
20
14.03455611607809
30
0
10
-13.542819974481645
20
13.913653404855982
30
0
10
-13.104588535197641
20
13.790341066794863
30
0
10
-12.669106994012351
20
13.664577587933591
30
0
10
-12.236533400471698
20
13.536327513953877
30
0
10
-11.807032756505702
20
13.405564364146255
30
0
10
-11.380786065540695
20
13.272271174587132
30
0
10
-10.957998988148576
20
13.136441714694202
30
0
10
-10.538909575575758
20
12.998081330187128
30
0
10
-10.123799066890772
20
12.857208189949496
30
0
10
-9.7129899117505065
20
12.713853320999958
30
0
10
-9.3068340004572327
20
12.568059816656245
30
0
10
-8.9057034989103627
20
12.419882201264878
30
0
10
-8.509981119064129
20
12.269385906848594
30
0
10
-8.120049311806719
20
12.116646242524414
30
0
10
-7.7362907145801429
20
11.961751395640949
30
0
10
-7.3590915592962247
20
11.804806524552456
30
0
10
-6.9888435797846817
20
11.645937178771442
30
0
10
-6.6259476549458327
20
11.48529369121886
30
0
10
-6.2708132134427856
20
11.323052974743664
30
0
10
-5.9238459471630751
20
11.159413014802578
30
0
10
-5.585437607352902
20
10.994588660993049
30
0
10
-5.2559549592573296
20
10.828806910001568
30
0
10
-4.9357291476708056
20
10.662302389679324
30
0
10
-4.6250509222461922
20
10.495306428079514
30
0
10
-4.3241659535347976
20
10.328036387112139
30
0
10
-4.0332699612792853
20
10.160684536561892
30
0
10
-3.7525043884422864
20
9.9934083365274837
30
0
10
-3.4819622300739517
20
9.8263534771290129
30
0
10
-3.2216918539360861
20
9.6596688770670998
30
0
10
-2.9717043593036401
20
9.4935370565537642
30
0
10
-2.7319696411930599
20
9.3281524600498837
30
0
10
-2.5024070645638608
20
9.1636619849215357
30
0
10
-2.2828692883387887
20
9.0000963360715218
30
0
10
-2.0731521814249891
20
8.8373595813110626
30
0
10
-1.8730708600289472
20
8.6753741895537146
30
0
10
-1.6825431184681232
20
8.5142430962178306
30
0
10
-1.5016171024303195
20
8.3542824821858623
30
0
10
-1.3303582663018052
20
8.1957517691040795
30
0
10
-1.1687413266689923
20
8.0385641702797592
30
0
10
-1.0166238695364407
20
7.8823125891863626
30
0
10
-0.87378395472191783
20
7.7265779914402657
30
0
10
-0.73995755264279817
20
7.5711285899050758
30
0
10
-0.6150460581966869
20
7.415803584338696
30
0
10
-0.49936581151132359
20
7.2603739344717555
30
0
10
-0.39355561968243746
20
7.1046013057899646
30
0
10
-0.29832688743206542
20
6.9484242709255186
30
0
10
-0.21439685998196803
20
6.7918546829178128
30
0
10
-0.14248396403671518
20
6.6344669912028902
30
0
10
-0.08341244682365502
20
6.4756456484189719
30
0
10
-0.038619755433930127
20
6.3159789828509521
30
0
10
-0.0097533938771629542
20
6.1569685944571351
30
0
10
0.0029621948048774369
20
5.9991747962987692
30
0
10
5.8768273431742204e-05
20
5.8422485263333543
30
0
10
-0.018947362006018081
20
5.6854712549144484
30
0
10
-0.055452462755568553
20
5.5287684336869294
30
0
10
-0.11155246990553909
20
5.3737823651136383
30
0
10
-0.18753551385125675
20
5.2220731683064336
30
0
10
-0.28056498330896679
20
5.0740794892590753
30
0
10
-0.38802358019907213
20
4.9305149912693773
30
0
10
-0.50899099333909814
20
4.7927725198120346
30
0
10
-0.64309853032342024
20
4.6616123556281268
30
0
10
-0.79002048815622916
20
4.5366510917362444
30
0
10
-0.94921609863360501
20
4.4172344508666992
30
0
10
-1.1197631561685626
20
4.3029432150471427
30
0
10
-1.3007387119218752
20
4.1933991084356634
30
0
10
-1.4915641898065621
20
4.0881121567487453
30
0
10
-1.6919532354802966
20
3.9865299024464527
30
0
10
-1.901792761692447
20
3.888127304315236
30
0
10
-2.1210883618261205
20
3.7924518301496364
30
0
10
-2.3499481090967835
20
3.6991354603326156
30
0
10
-2.5885581147936958
20
3.6079192914235518
30
0
10
-2.8371551209733452
20
3.518620236572183
30
0
10
-3.0959965298680232
20
3.4310912801008495
30
0
10
-3.3653319354491327
20
3.3451852965182831
30
0
10
-3.6453853538171725
20
3.2607579778735389
30
0
10
-3.9363379552095661
20
3.1776702586346732
30
0
10
-4.2383090212271508
20
3.09578983840251
30
0
10
-4.551359509299612
20
3.0150054654061833
30
0
10
-4.8754964191461427
20
2.9352403388042561
30
0
10
-5.2106794181642897
20
2.8564700547398418
30
0
10
-5.5568173421754263
20
2.7787236657738532
30
0
10
-5.9137479952156591
20
2.7020596279926226
30
0
10
-6.2812246911845095
20
2.6265495117132325
30
0
10
-6.6588940422073497
20
2.5522548942895744
30
0
10
-7.0463016308222937
20
2.4792219105852094
30
0
10
-7.4429230926420962
20
2.4074910971231658
30
0
10
-7.8481877099287551
20
2.3371026944888338
30
0
10
-8.2615062195927695
20
2.2681046692654565
30
0
10
-8.6822933860363012
20
2.2005570182133445
30
0
10
-9.1099712152701411
20
2.1345222051685684
30
0
10
-9.5439746000616523
20
2.0700569098449901
30
0
10
-9.9837559307629409
20
2.0072041264406066
30
0
10
-10.428790388363833
20
1.9459830555042121
30
0
10
-10.878580015801155
20
1.886387663458865
30
0
10
-11.332656500088085
20
1.8283954678350094
30
0
10
-11.790584436228773
20
1.7719739400039927
30
0
10
-12.251964047190212
20
1.7170872955969894
30
0
10
-12.716434986605858
20
1.6637045347735899
30
0
10
-13.183676446815335
20
1.6118015744310463
30
0
10
-13.653403103221731
20
1.5613564233226254
30
0
10
-14.125362120599
20
1.5123460488499563
30
0
10
-14.599329777550222
20
1.4647428540503371
30
0
10
-15.075108134867811
20
1.4185106046570561
30
0
10
-15.552522075953805
20
1.373602928969061
30
0
10
-16.031417458805361
20
1.3299682966698456
30
0
10
-16.511659040458621
20
1.2875537218723156
30
0
10
-16.993128493230511
20
1.2463089409984198
30
0
10
-17.475722380415743
20
1.2061904657902962
30
0
10
-17.959350152593409
20
1.1671654689432125
30
0
10
-18.443932052944604
20
1.1292084638290885
30
0
10
-18.929397062939838
20
1.0922983137537607
30
0
10
-19.415680764926531
20
1.0564149921616448
30
0
10
-19.902723395278048
20
1.0215367333333079
30
0
10
-20.390467419071946
20
0.98763628779579515
30
0
10
-20.878857641884096
20
0.95468183448192978
30
0
10
-21.367842267238508
20
0.92263961339714307
30
0
10
-21.857373680280958
20
0.89147607647504956
30
0
10
-22.3474092692806
20
0.86116006471256623
30
0
10
-22.837912415274428
20
0.83166539550627816
30
0
10
-23.328852785247058
20
0.80297184601467009
30
0
10
-23.820205243239428
20
0.77506297581997441
30
0
10
-24.311949064050896
20
0.74792464593908814
30
0
10
-24.804067025916652
20
0.72154324779781565
30
0
10
-25.296544554292794
20
0.69590408146089056
30
0
10
-25.789368844727989
20
0.67098960069138602
30
0
10
-26.28252809204724
20
0.64678012123159978
30
0
10
-26.776010746389439
20
0.62325460433568181
30
0
10
-27.269804706797743
20
0.60039142264038492
30
0
10
-27.763896661332467
20
0.57816911239038082
30
0
10
-28.258271066131215
20
0.55656718392349769
30
0
10
-28.752910543639349
20
0.53556668244339023
30
0
10
-29.247797406655081
20
0.51515053642336139
30
0
10
-29.742914879826397
20
0.49530398093142214
30
0
10
-30.238248402052076
20
0.47601491967320864
30
0
10
-30.733786996946108
20
0.45727438545921129
30
0
10
-31.229524312134217
20
0.43907674557968046
30
0
10
-31.725456967296854
20
0.42141798826290988
30
0
10
-32.221583206533623
20
0.40429424013409154
30
0
10
-32.717901366011539
20
0.38770011198329796
30
0
10
-33.214408575595826
20
0.37162730820286655
30
0
10
-33.711098964531189
20
0.35606263780575009
30
0
10
-34.207964267446322
20
0.34098896629739905
30
0
10
-34.704995423543991
20
0.32638738874107198
30
0
10
-35.202183900751542
20
0.31223906314206817
30
0
10
-35.699523038120006
20
0.29852706975349408
30
0
10
-36.197009610398041
20
0.2852385352272534
30
0
10
-36.694644574954054
20
0.27236577674058216
30
0
10
-37.192431069600573
20
0.25990415383445781
30
0
10
-37.690372908080803
20
0.24785051134156544
30
0
10
-38.188472817413988
20
0.23620132550787001
30
0
10
-38.686730928851759
20
0.22495112451074678
30
0
10
-39.185142786595215
20
0.21409040680687635
30
0
10
-39.683700387411555
20
0.20360667568138233
30
0
10
-40.182393926852853
20
0.19348618959781716
30
0
10
-40.681213356481805
20
0.1837155381520342
30
0
10
-41.18014990568593
20
0.17428313702801876
30
0
10
-41.679197895072171
20
0.16518112934247972
30
0
10
-42.178355503455066
20
0.15640587213970897
30
0
10
-42.67762328744346
20
0.14795537898159228
30
0
10
-43.177003181756845
20
0.13982743650682355
30
0
10
-43.676497286988514
20
0.1320173743018436
30
0
10
-44.176106795734356
20
0.12451616259250756
30
0
10
-44.675830733085142
20
0.11730789425819939
30
0
10
-45.175666141327966
20
0.11037254773940969
30
0
10
-45.675608474376617
20
0.10368943814661336
30
0
10
-46.175651912283726
20
0.097240585396533324
30
0
10
-46.675789724166748
20
0.091013759925738263
30
0
10
-47.176014574359932
20
0.085006534325299143
30
0
10
-47.676318979383595
20
0.079226867645538226
30
0
10
-48.176696004732392
20
0.073687988487407236
30
0
10
-48.67713989857684
20
0.068404636769906491
30
0
10
-49.177646767999683
20
0.063388680434843608
30
0
10
-49.678215197138904
20
0.058645180593627257
30
0
10
-50.178846997120338
20
0.054167778742660017
30
0
10
-50.679546300144345
20
0.049941667973098208
30
0
10
-51.180318514420755
20
0.045947199872024204
30
0
10
-51.68116929581587
20
0.042163385782623672
30
0
10
-52.182103587355982
20
0.038571168994293588
30
0
10
-52.683124446968257
20
0.035157462299703304
30
0
10
-53.184232626946738
20
0.031916443058148662
30
0
10
-53.685427208615614
20
0.028846989118345812
30
0
10
-54.186705977477907
20
0.02595106818352785
30
0
10
-54.688065905250468
20
0.023231725762818848
30
0
10
-55.189503581823764
20
0.020691281071600259
30
0
10
-55.691015680733251
20
0.018329335198834208
30
0
10
-56.192599136051065
20
0.016142937735528627
30
0
10
-56.694251295325003
20
0.014126891357014127
30
0
10
-57.195970098229559
20
0.012273986694528123
30
0
10
-57.697754205259876
20
0.01057531325515287
30
0
10
-58.199603243504036
20
0.0090204235770044508
30
0
10
-58.701517649205172
20
0.0075979817759215702
30
0
10
-59.203497984475455
20
0.0062970405321584755
30
0
10
-59.705544392843606
20
0.0051081497525531398
30
0
10
-60.207655983592723
20
0.0040245569954442378
30
0
10
-60.709830281298906
20
0.003043313839442396
30
0
10
-61.212062554266318
20
0.0021665702292803716
30
0
10
-61.714347249415447
20
0.0013994450417921446
30
0
10
-62.216679494123866
20
0.00074775760440935377
30
0
10
-62.719056670135735
20
0.00021570926598450026
30
0
10
-63.221479738950109
20
-0.00019618663867037374
30
0
10
-63.723955207111153
20
-0.00049383716027212978
30
0
10
-64.2264948482931
20
-0.00068996705157336373
30
0
10
-64.729112523069062
20
-0.00080149772627762276
30
0
10
-65.231821744798737
20
-0.0008476941163561314
30
0
10
-65.734632907723793
20
-0.00084798120376953752
30
0
10
-66.237550741509224
20
-0.00081994582232119105
30
0
10
-66.740571447164726
20
-0.00077713993808341275
30
0
10
-67.243684688178959
20
-0.00072953381877404106
30
0
10
-67.746875841170166
20
-0.00068411590578774993
30
0
10
-68.25012821666796
20
-0.00064545428421861604
30
0
10
-68.753425148475785
20
-0.00061624237106619917
30
0
10
-69.256752490790859
20
-0.00059792933338706066
30
0
10
-69.760099663607605
20
-0.00059103036784721329
30
0
10
-70.263458691914138
20
-0.00059498677836293242
30
0
10
-70.766823744159908
20
-0.00060814258285796111
30
0
10
-71.270190458390971
20
-0.00062766237396437604
30
0
10
-71.773555382925579
20
-0.00064950116667225762
30
0
10
-72.276915304452956
20
-0.00066828041787105291
30
0
10
-72.780267627777732
20
-0.00067830463097611263
30
0
10
-73.28361082153674
20
-0.00067464014503084422
30
0
10
-73.786944874032486
20
-0.00065423894021053271
30
0
10
-74.290271669419099
20
-0.00061689142224169349
30
0
10
-74.79359558146659
20
-0.00056662254787056394
30
0
10
-75.296923323386935
20
-0.00051158519667755451
30
0
10
-75.800262649032987
20
-0.00046163574382723191
30
0
10
-76.303621337349384
20
-0.00042648274583945346
30
0
10
-76.807006039224149
20
-0.00041355370581756812
30
0
10
-77.310421237411205
20
-0.00042610029797361112
30
0
10
-77.813868013285699
20
-0.00046088707292383336
30
0
10
-78.317344754757826
20
-0.00051007605649353092
30
0
10
-78.820848070489717
20
-0.00056354521490315759
30
0
10
-79.324373658583013
20
-0.00061113667215544087
30
0
10
-79.827917132059454
20
-0.00064474576238053366
30
0
10
-80.331475014137254
20
-0.00066093612713662999
30
0
10
-80.835045137379083
20
-0.00066174543876647242
30
0
10
-81.338626001401593
20
-0.00065233964476075655
30
0
10
-81.842216373531542
20
-0.00063940428743370433
30
0
10
-82.345814778293146
20
-0.00062919368052383054
30
0
10
-82.849419065749444
20
-0.00062583280099118169
30
0
10
-83.353025863074521
20
-0.00062922895395646386
30
0
10
-83.856630945734366
20
-0.00063610632072763184
30
0
10
-84.36022973756765
20
-0.00064148062336471525
30
0
10
-84.863817778525089
20
-0.00064002163242764991
30
0
10
-85.367391177359423
20
-0.00062736867112961813
30
0
10
-85.87094714000358
20
-0.0006016938223003664
30
0
10
-86.374484232285965
20
-0.0005643925902873646
30
0
10
-86.878002108879286
20
-0.00051902246788881944
30
0
10
-87.381501358810908
20
-0.00047062171270488437
30
0
10
-87.884983300452134
20
-0.00042486839660859006
30
0
10
-88.388449807069861
20
-0.0003873251990810489
30
0
10
-88.891903095754515
20
-0.00036260106645271556
30
0
10
-89.395345738656133
20
-0.00035397869920337978
30
0
10
-89.898780710294105
20
-0.00036314056528546126
30
0
10
-90.402211430554672
20
-0.00038983126056840029
30
0
10
-90.905641791382266
20
-0.00043161371871936686
30
0
10
-91.409076234118658
20
-0.00048342331803943883
30
0
10
-91.912519661209245
20
-0.00053774300560369386
30
0
10
-92.415976969245932
20
-0.00058619232554825212
30
0
10
-92.919452662220948
20
-0.00062080586456092198
30
0
10
-93.422950425306098
20
-0.00063548809890404947
30
0
10
-93.926472732896613
20
-0.00062727086059312267
30
0
10
-94.430020396300293
20
-0.00059797394078198206
30
0
10
-94.933592505444551
20
-0.00055319099039786816
30
0
10
-95.437186470120295
20
-0.00050068005368404612
30
0
10
-95.940798009811061
20
-0.00044892226662449455
30
0
10
-96.444421204127281
20
-0.00040568904076177556
30
0
10
-96.948048423363844
20
-0.00037641587186983344
30
0
10
-97.451670614172897
20
-0.00036327078245333418
30
0
10
-97.955278520844843
20
-0.000366081671875647
30
0
10
-98.458863708432034
20
-0.00038290326465237389
30
0
10
-98.962419709908076
20
-0.00041074286801015092
30
0
10
-99.465943015195023
20
-0.00044618168351105356
30
0
10
-99.969434400603348
20
-0.00048613590388989024
30
0
10
-100.4728982052772
20
-0.00052789373868202167
30
0
10
-100.97634105006972
20
-0.00056896236455995927
30
0
10
-101.47977072060741
20
-0.00060697001964171422
30
0
10
-101.98319503391026
20
-0.0006395638687735595
30
0
10
-102.48662058689385
20
-0.00066426454710690451
30
0
10
-102.99005195118001
20
-0.00067848278447656455
30
0
10
-103.49349227681546
20
-0.00068006173608908739
30
0
10
-103.9969436399665
20
-0.00066770965786515986
30
0
10
-104.50040750880687
20
-0.00064151187303330731
30
0
10
-105.00388511942724
20
-0.00060332579455680212
30
0
10
-105.5073779921704
20
-0.00055744000141524344
30
0
10
-106.01088773845416
20
-0.0005097594084249689
30
0
10
-106.51441564852257
20
-0.00046653201335993715
30
0
10
-107.0179623392616
20
-0.00043319049828556485
30
0
10
-107.52152740423439
20
-0.00041322841567723099
30
0
10
-108.02510899751788
20
-0.00040686422837891506
30
0
10
-108.52870364881963
20
-0.00041041019199994561
30
0
10
-109.03230693454961
20
-0.00041823403704122395
30
0
10
-109.53591399853123
20
-0.00042426113488673838
30
0
10
-110.03952015776703
20
-0.00042374556131642092
30
0
10
-110.54312141194254
20
-0.00041472242051233564
30
0
10
-111.04671514770457
20
-0.0004001190254499702
30
0
10
-111.55029986082053
20
-0.00038652600356887083
30
0
10
-112.05387451672703
20
-0.00038173604921203211
30
0
10
-112.55743801082959
20
-0.00039262494503890092
30
0
10
-113.06098862683714
20
-0.00042301990860102543
30
0
10
-113.56452340153935
20
-0.00047126358179332909
30
0
10
-114.06803781823911
20
-0.00052885489732670116
30
0
10
-114.57152697804544
20
-0.0005839254494920908
30
0
10
-115.07498653248989
20
-0.00062394427611803943
30
0
10
-115.57841376169384
20
-0.00063887559325860588
30
0
10
-116.08180846993514
20
-0.00062379412712814503
30
0
10
-116.5851742663821
20
-0.00058262204115287015
30
0
10
-117.08851800710923
20
-0.0005265406042063819
30
0
10
-117.59184843992044
20
-0.00047010548153984957
30
0
10
-118.09517508804853
20
-0.00042803242954821195
30
0
10
-118.59850706891713
20
-0.00041184221167449341
30
0
10
-119.10185185897495
20
-0.00042623774959154622
30
0
10
-119.60521432702183
20
-0.00046658207957602144
30
0
10
-120.10859725633304
20
-0.00052239335720845217
30
0
10
-120.61200166846403
20
-0.00058001000687378404
30
0
10
-121.11542723480312
20
-0.00062568551627866929
30
0
10
-121.6188726261589
20
-0.00064825343012554586
30
0
10
-122.1223359511476
20
-0.00064260182160276002
30
0
10
-122.62581483729144
20
-0.00060957895844147272
30
0
10
-123.12930634410762
20
-0.00055414796441432363
30
0
10
-123.63280692095978
20
-0.00048407952098116923
30
0
10
-124.13631236326715
20
-0.0004084439495192257
30
0
10
-124.63981772922041
20
-0.00033613564302133468
30
0
10
-125.14331739355519
20
-0.00027454151430310466
30
0
10
-125.64680604348432
20
-0.00022936953133549865
30
0
10
-126.15027953765158
20
-0.00020435927718111556
30
0
10
-126.65373588236614
20
-0.00020100404189150927
30
0
10
-127.15717601011347
20
-0.00021834662349767798
30
0
10
-127.66060501521586
20
-0.0002525454557183602
30
0
10
-128.1640313840621
20
-0.00029750136416911889
30
0
10
-128.66746510360895
20
-0.00034608195399596137
30
0
10
-129.17091609535282
20
-0.00039117452235009796
30
0
10
-129.67439255637078
20
-0.00042678276260683023
30
0
10
-130.17789924117147
20
-0.00044916913131255336
30
0
10
-130.68143605819435
20
-0.00045778960906940673
30
0
10
-131.18499945995671
20
-0.00045442370678761739
30
0
10
-131.68858355139122
20
-0.00044248115667086849
30
0
10
-132.19218134307999
20
-0.00042622707350740133
30
0
10
-132.69578585866427
20
-0.00041007330027885745
30
0
10
-133.19939151587309
20
-0.00039776233582430323
30
0
10
-133.70299441538953
20
-0.00039196347700044256
30
0
10
-134.20659193625528
20
-0.00039413280014767333
30
0
10
-134.71018253863707
20
-0.00040428740605409164
30
0
10
-135.21376548174379
20
-0.00042083004970111461
30
0
10
-135.71734057630903
20
-0.00044031670105581204
30
0
10
-136.22090792705438
20
-0.00045735211779010548
30
0
10
-136.72446772065879
20
-0.00046596787153179597
30
0
10
-137.22802001827122
20
-0.00046085071206480421
30
0
10
-137.73156452586448
20
-0.00043871640135082293
30
0
10
-138.23510042105136
20
-0.00039941911153451717
30
0
10
-138.73862603834561
20
-0.00034767960676214659
30
0
10
-139.24213912979405
20
-0.00029233087143912533
30
0
10
-139.74563754438884
20
-0.00024375839475276347
30
0
10
-140.24911978952812
20
-0.00021185339595018157
30
0
10
-140.75258563129063
20
-0.00020378666036879853
30
0
10
-141.25603670112625
20
-0.00022178409723618378
30
0
10
-141.75947703388533
20
-0.00026111672204299564
30
0
10
-142.26291218601321
20
-0.00031275456658072157
30
0
10
-142.76634844254539
20
-0.00036572092226448059
30
0
10
-143.26979195769681
20
-0.0004096805922293587
30
0
10
-143.77324799857087
20
-0.00043715353440469283
30
0
10
-144.27671995860092
20
-0.00044657262938010452
30
0
10
-144.78020925262149
20
-0.00044210364653738809
30
0
10
-145.2837159353013
20
-0.0004308092546349617
30
0
10
-145.78723911518131
20
-0.000420561151105179
30
0
10
-146.29077744973247
20
-0.00041766087996419015
30
0
10
-146.79432961255969
20
-0.0004245479665995002
30
0
10
-147.29789475276962
20
-0.00043757776447500405
30
0
10
-147.80147203421589
20
-0.0004495786004640774
30
0
10
-148.30506022059674
20
-0.0004521998450761116
30
0
10
-148.80865720783501
20
-0.00043847333106068379
30
0
10
-149.31225965945566
20
-0.00040497777973852141
30
0
10
-149.81586239844708
20
-0.00035493114108115257
30
0
10
-150.31945870904349
20
-0.00029782345853378788
30
0
10
-150.82304148617052
20
-0.00024582816190587214
30
0
10
-151.32660415093309
20
-0.00021110277219658937
30
0
10
-151.83014166195403
20
-0.00020272455079612517
30
0
10
-152.33365148552795
20
-0.00022378461719725452
30
0
10
-152.83713458349271
20
-0.0002684100616389019
30
0
10
-153.3405945582771
20
-0.00032496417653125236
30
0
10
-153.84403681749649
20
-0.00037915428399715092
30
0
10
-154.34746770425502
20
-0.00041731432659400885
30
0
10
-154.85089370309049
20
-0.00042929552430676402
30
0
10
-155.35432046308739
20
-0.00041230757344248441
30
0
10
-155.85775248529959
20
-0.00037130438683414602
30
0
10
-156.36119351048345
20
-0.00031572857951530736
30
0
10
-156.86464671819533
20
-0.00025723409093835083
30
0
10
-157.36811500628747
20
-0.00020699770554468626
30
0
10
-157.87160122797548
20
-0.00017323466780874152
30
0
10
-158.37510846839115
20
-0.00015854988924842226
30
0
10
-158.87863939338467
20
-0.00016123762657419189
30
0
10
-159.38219560539926
20
-0.00017664513265005041
30
0
10
-159.88577694501106
20
-0.0001985458337590258
30
0
10
-160.38938093249894
20
-0.00022043529969023086
30
0
10
-160.89300186233197
20
-0.00023703955792589779
30
0
10
-161.39663112880731
20
-0.00024505756817061003
30
0
10
-161.90025902003504
20
-0.00024299522742510184
30
0
10
-162.40387612284266
20
-0.00023122935934909598
30
0
10
-162.90747490825058
20
-0.00021198786538923246
30
0
10
-163.41105118751614
20
-0.00018934320919394688
30
0
10
-163.91460576434451
20
-0.00016926032609683765
30
0
10
-164.41814268208464
20
-0.00015828307693338019
30
0
10
-164.92166734237571
20
-0.00016218998262187138
30
0
10
-165.42518457542488
20
-0.00018457227949529793
30
0
10
-165.92869694546366
20
-0.00022564652827924427
30
0
10
-166.43220243092114
20
-0.00028047383657793415
30
0
10
-166.93569428681081
20
-0.00033923263273937204
30
0
10
-167.43916387242712
20
-0.00039028167839145225
30
0
10
-167.94260272413379
20
-0.00042250736714615882
30
0
10
-168.44600497822211
20
-0.00042801457145344923
30
0
10
-168.9493695408591
20
-0.00040454554923805442
30
0
10
-169.45270264354855
20
-0.00035835082640992103
30
0
10
-169.95601566467326
20
-0.00030136006470143196
30
0
10
-170.45932260920449
20
-0.00024795003237392628
30
0
10
-170.96263762329249
20
-0.00021172908480489414
30
0
10
-171.46597269189391
20
-0.00020260373382616277
30
0
10
-171.96933477666698
20
-0.00022302075255507592
30
0
10
-172.47272490421182
20
-0.00026706306413846418
30
0
10
-172.97614022783767
20
-0.0003238920792047518
30
0
10
-173.47957536773333
20
-0.00038013449283225023
30
0
10
-173.98302407047515
20
-0.00042273831502097808
30
0
10
-174.48648066669367
20
-0.00044152780075249116
30
0
10
-174.9899417894629
20
-0.00043215624289917788
30
0
10
-175.49340571309901
20
-0.00039533638225312145
30
0
10
-175.99687145498436
20
-0.00033566495197167993
30
0
10
-176.5003379204735
20
-0.00026059083183723971
30
0
10
-177.00380312135493
20
-0.00017932267118351948
30
0
10
-177.50726314033872
20
-0.00010176279066302876
30
0
10
-178.01071197579074
20
-3.7426798452719432e-05
30
0
10
-178.51414290781534
20
5.6583313400813349e-06
30
0
10
-179.01754950447329
20
2.2026768822898051e-05
30
0
10
-179.52092680045774
20
9.912484006657003e-06
30
0
10
-180.02427233762052
20
-2.7766677349593682e-05
30
0
10
-180.52758743564979
20
-8.2024666849421005e-05
30
0
10
-181.03087651849503
20
-0.0001401428181830689
30
0
10
-181.53414616761415
20
-0.00018849069926161471
30
0
10
-182.03740425816679
20
-0.00021529261275493998
30
0
10
-182.54065908940774
20
-0.00021315448773990216
30
0
10
-183.04391844729594
20
-0.00018232855286307248
30
0
10
-183.54718893328851
20
-0.00013150751953278244
30
0
10
-184.05047580708884
20
-7.3839009145820978e-05
30
0
10
-184.55378272967772
20
-2.4024626371956262e-05
30
0
10
-185.05711151937373
20
5.1098695941455495e-06
30
0
10
-185.56046196482919
20
5.5994014724139378e-06
30
0
10
-186.06383144980836
20
-2.1908060475792283e-05
30
0
10
-186.5672161512245
20
-7.0121408726499303e-05
30
0
10
-187.07061246796454
20
-0.00012803529120717033
30
0
10
-187.57401846594544
20
-0.00018360734125451639
30
0
10
-188.07743509885083
20
-0.00022635827645031101
30
0
10
-188.58086805004874
20
-0.00025044610981508371
30
0
10
-189.08432755783929
20
-0.0002560719233246488
30
0
10
-189.58782379977876
20
-0.00024722697986898236
30
0
10
-190.09136331243226
20
-0.00023021970017474835
30
0
10
-190.59494475134787
20
-0.00021184717123429056
30
0
10
-191.09855550409523
20
-0.0001978208224316163
30
0
10
-191.60216644710928
20
-0.00019081525545088857
30
0
10
-192.10573954389687
20
-0.00019088061879007874
30
0
10
-192.60923790438011
20
-0.00019634375852174143
30
0
10
-193.11263556120247
20
-0.00020455900728686167
30
0
10
-193.61592610368211
20
-0.00021268420904947861
30
0
10
-194.11913483622229
20
-0.00021853682775500763
30
0
10
-194.62231952648241
20
-0.00022112051082018408
30
0
10
-195.12554220893293
20
-0.00022030413589727791
30
0
10
-195.62884732813629
20
-0.00021666618739095818
30
0
10
-196.13223585237731
20
-0.00021127422291985582
30
0
10
-196.63564460392263
20
-0.00020549014378317808
30
0
10
-197.13891428204289
20
-0.00020076923022465266
30
0
10
-197.64182840208477
20
-0.00019843098692561489
30
0
10
-198.14416868111607
20
-0.00019942664211489581
30
0
10
-198.64576778818486
20
-0.00020409462658963279
30
0
10
-199.12422285121846
20
-0.00021160059796443428
30
0
10
-199.50200962773118
20
-0.00021866630492273161
30
0
10
-199.77959235310905
20
-0.00022349132272706822
30
0
10
-199.95716966540417
20
-0.00022613222178862979
30
0
10
-200.03480956024973
20
-0.00022717680982141554
30
0
0
ENDSEC
0
SECTION
2
OBJECTS
0
DICTIONARY
5
C
100
AcDbDictionary
3
ACAD_GROUP
350
D
3
ACAD_MLINESTYLE
350
17
0
DICTIONARY
5
D
100
AcDbDictionary
0
DICTIONARY
5
1A
330
C
100
AcDbDictionary
0
DICTIONARY
5
17
100
AcDbDictionary
0
ENDSEC
0
EOF
