0
SECTION
2
HEADER
9
$INSUNITS
70
4
9
$ACADVER
1
AC1014
9
$HANDSEED
5
FFFF
0
ENDSEC
0
SECTION
2
TABLES
0
TABLE
2
VPORT
5
8
100
AcDbSymbolTable
0
ENDTAB
0
TABLE
2
LTYPE
5
5
100
AcDbSymbolTable
0
LTYPE
5
14
100
AcDbSymbolTableRecord
100
AcDbLinetypeTableRecord
2
BYBLOCK
70
0
0
LTYPE
5
15
100
AcDbSymbolTableRecord
100
AcDbLinetypeTableRecord
2
BYLAYER
70
0
0
ENDTAB
0
TABLE
2
LAYER
5
2
100
AcDbSymbolTable
70
2
0
LAYER
5
50
100
AcDbSymbolTableRecord
100
AcDbLayerTableRecord
2
0
70
0
6
CONTINUOUS
0
ENDTAB
0
TABLE
2
STYLE
5
3
100
AcDbSymbolTable
70
1
0
STYLE
5
11
100
AcDbSymbolTableRecord
100
AcDbTextStyleTableRecord
2
STANDARD
70
0
0
ENDTAB
0
TABLE
2
VIEW
5
6
100
AcDbSymbolTable
70
0
0
ENDTAB
0
TABLE
2
UCS
5
7
100
AcDbSymbolTable
70
0
0
ENDTAB
0
TABLE
2
APPID
5
9
100
AcDbSymbolTable
70
2
0
APPID
5
12
100
AcDbSymbolTableRecord
100
AcDbRegAppTableRecord
2
ACAD
70
0
0
ENDTAB
0
TABLE
2
DIMSTYLE
5
A
100
AcDbSymbolTable
70
1
0
ENDTAB
0
TABLE
2
BLOCK_RECORD
5
1
100
AcDbSymbolTable
70
1
0
BLOCK_RECORD
5
1F
100
AcDbSymbolTableRecord
100
AcDbBlockTableRecord
2
*MODEL_SPACE
0
BLOCK_RECORD
5
1B
100
AcDbSymbolTableRecord
100
AcDbBlockTableRecord
2
*PAPER_SPACE
0
ENDTAB
0
ENDSEC
0
SECTION
2
BLOCKS
0
BLOCK
5
20
100
AcDbEntity
100
AcDbBlockBegin
2
*MODEL_SPACE
0
ENDBLK
5
21
100
AcDbEntity
100
AcDbBlockEnd
0
BLOCK
5
1C
100
AcDbEntity
100
AcDbBlockBegin
2
*PAPER_SPACE
0
ENDBLK
5
1D
100
AcDbEntity
100
AcDbBlockEnd
0
ENDSEC
0
SECTION
2
ENTITIES
0
LINE
5
100
100
AcDbEntity
8
0
100
AcDbLine
10
156.11019682828027
20
-0.00015105078215852448
30
0
11
156.11019682828027
21
1.4311194683338839
31
0
0
SPLINE
5
101
100
AcDbEntity
8
0
100
AcDbSpline
70
0
71
3
72
122
73
118
74
0
42
0.000000001
43
0.0000000001
44
0.0000000001
40
0.025075606072429989
40
0.025075606072429989
40
0.025075606072429989
40
0.025075606072429989
40
0.041042547890132126
40
0.041042547890132126
40
0.041042547890132126
40
0.056741155031426065
40
0.056741155031426065
40
0.056741155031426065
40
0.072175937032288404
40
0.072175937032288404
40
0.072175937032288404
40
0.087351327643057447
40
0.087351327643057447
40
0.087351327643057447
40
0.1022716861020594
40
0.1022716861020594
40
0.1022716861020594
40
0.13125687441432665
40
0.13125687441432665
40
0.13125687441432665
40
0.14543937205941046
40
0.14543937205941046
40
0.14543937205941046
40
0.15249660752798852
40
0.15249660752798852
40
0.15249660752798852
40
0.16632215786424376
40
0.16632215786424376
40
0.16632215786424376
40
0.17320177573179568
40
0.17320177573179568
40
0.17320177573179568
40
0.18002287931715216
40
0.18002287931715216
40
0.18002287931715216
40
0.18678596631092434
40
0.18678596631092434
40
0.18678596631092434
40
0.20003526202695779
40
0.20003526202695779
40
0.20003526202695779
40
0.22577414305916552
40
0.22577414305916552
40
0.22577414305916552
40
0.25065834671194076
40
0.25065834671194076
40
0.25065834671194076
40
0.26283422619573582
40
0.26283422619573582
40
0.26283422619573582
40
0.28648782410861584
40
0.28648782410861584
40
0.28648782410861584
40
0.33167225170712311
40
0.33167225170712311
40
0.33167225170712311
40
0.3738921290108923
40
0.3738921290108923
40
0.3738921290108923
40
0.41334196016476121
40
0.41334196016476121
40
0.41334196016476121
40
0.4319978444827105
40
0.4319978444827105
40
0.4319978444827105
40
0.45003424723501173
40
0.45003424723501173
40
0.45003424723501173
40
0.46747173873629794
40
0.46747173873629794
40
0.46747173873629794
40
0.4843302062496514
40
0.4843302062496514
40
0.4843302062496514
40
0.49257908057925742
40
0.49257908057925742
40
0.49257908057925742
40
0.50068932729630999
40
0.50068932729630999
40
0.50068932729630999
40
0.5086632761265627
40
0.5086632761265627
40
0.5086632761265627
40
0.51650321764323648
40
0.51650321764323648
40
0.51650321764323648
40
0.52421140392500332
40
0.52421140392500332
40
0.52421140392500332
40
0.53918579154021828
40
0.53918579154021828
40
0.53918579154021828
40
0.55366294423874973
40
0.55366294423874973
40
0.55366294423874973
40
0.5676593730505457
40
0.5676593730505457
40
0.5676593730505457
40
0.59439613532297297
40
0.59439613532297297
40
0.59439613532297297
40
0.64375833301842822
40
0.64375833301842822
40
0.64375833301842822
40
0.68672138476674793
40
0.68672138476674793
40
0.68672138476674793
40
0.83270722680888665
40
0.83270722680888665
40
0.83270722680888665
40
0.90480858416532062
40
0.90480858416532062
40
0.90480858416532062
40
0.94041892596229859
40
0.94041892596229859
40
0.94041892596229859
40
0.97516984816755881
40
0.97516984816755881
40
0.97516984816755881
40
0.97516984816755881
10
156.11019682828027
20
1.4311194683338839
30
0
10
154.54022955955625
20
1.6878222472391591
30
0
10
152.95040914161456
20
1.9477749416756041
30
0
10
151.36104302873403
20
2.2077115621545906
30
0
10
149.79838723060649
20
2.4632797813617984
30
0
10
148.22771245816438
20
2.720164320399153
30
0
10
146.69182016964572
20
2.9713098406201581
30
0
10
145.18173953403738
20
3.2182346996356999
30
0
10
143.72190099146741
20
3.4568355072421038
30
0
10
142.25525300149096
20
3.6968012600331388
30
0
10
140.81325296967006
20
3.932734234765646
30
0
10
139.3633323025735
20
4.1757735080708729
30
0
10
137.88480986689754
20
4.4069201647988168
30
0
10
136.43113494703701
20
4.6341822540219706
30
0
10
134.92475135047923
20
4.8544077472510851
30
0
10
133.44398816007921
20
5.0778770967545555
30
0
10
130.56736826937399
20
5.5120021343785641
30
0
10
127.68505518410765
20
5.9462060918853998
30
0
10
124.81600296249422
20
6.3788144924082166
30
0
10
123.41217125582098
20
6.5904904544740441
30
0
10
122.00966406514905
20
6.802107961784837
30
0
10
120.62735977166022
20
7.0106197711595275
30
0
10
119.93952275363269
20
7.1143756097685715
30
0
10
119.25476025323769
20
7.2174887199044928
30
0
10
118.58343182678448
20
7.3186919628872182
30
0
10
117.26825891050397
20
7.5169552256449599
30
0
10
116.04985196617108
20
7.7090674569818294
30
0
10
114.72229191237153
20
7.8923117450258031
30
0
10
114.06169572312491
20
7.9834944211214012
30
0
10
113.37864144432076
20
8.069608772115787
30
0
10
112.72506676280189
20
8.1471918484899035
30
0
10
112.07705103151638
20
8.2241150454765393
30
0
10
111.45482620139832
20
8.2934228646114434
30
0
10
110.79464752597738
20
8.3635060455834029
30
0
10
110.14008397076468
20
8.4329931371929163
30
0
10
109.45394307200856
20
8.5031890024746133
30
0
10
108.7808950841182
20
8.573352860653964
30
0
10
107.4623534431705
20
8.7108080946990221
30
0
10
106.14550754503236
20
8.8490408347205936
30
0
10
104.81464367278755
20
8.9882560613242486
30
0
10
102.22922723919409
20
9.2587039577424068
30
0
10
99.643720387187955
20
9.5290511276234469
30
0
10
97.070320801727405
20
9.7980555594465422
30
0
10
94.582372732639385
20
10.058127512714778
30
0
10
92.080078087264994
20
10.319695211753416
30
0
10
89.646726976945175
20
10.573844393060874
30
0
10
88.456084500519822
20
10.698199982079679
30
0
10
87.290689337438181
20
10.824625521352814
30
0
10
86.111832374486269
20
10.93595480115197
30
0
10
83.82171373167489
20
11.152229775276382
30
0
10
81.531292127844765
20
11.347473070948741
30
0
10
79.221047390686692
20
11.515714584172223
30
0
10
74.807888494292769
20
11.837098946133084
30
0
10
70.283950473210808
20
12.05755939129763
30
0
10
65.816155804813064
20
12.144069544158311
30
0
10
61.641493144608887
20
12.224903765889803
30
0
10
57.486427330470676
20
12.193886632906285
30
0
10
53.346175351581124
20
12.022661714236513
30
0
10
49.477565305026509
20
11.862670862480664
30
0
10
45.657313226589125
20
11.589253558144176
30
0
10
41.935931461272993
20
11.124743373414624
30
0
10
40.176084443274924
20
10.905075810402156
30
0
10
38.441621367440064
20
10.642490602191362
30
0
10
36.736938084616384
20
10.318343795475071
30
0
10
35.088859991392944
20
10.004960508080739
30
0
10
33.448811079927886
20
9.6306291867534473
30
0
10
31.883747493319628
20
9.1869709516651294
30
0
10
30.370652927554733
20
8.7580446956886639
30
0
10
28.91826004005161
20
8.2567922276735501
30
0
10
27.66037537288145
20
7.7019223877973317
30
0
10
26.444259637687004
20
7.1654773854297114
30
0
10
25.436623272986868
20
6.5884289716986055
30
0
10
24.701514162321306
20
6.0413123845866057
30
0
10
24.341824133104495
20
5.7736073890314019
30
0
10
24.041203220600821
20
5.5111985389327476
30
0
10
23.797701102858216
20
5.2557744604585013
30
0
10
23.558291194050497
20
5.0046429470995291
30
0
10
23.367774714844952
20
4.7563593116758032
30
0
10
23.244792954198058
20
4.5035808238603696
30
0
10
23.123877980749619
20
4.2550504403159515
30
0
10
23.075546386736999
20
4.0015290431975625
30
0
10
23.126836786533019
20
3.75390231116394
30
0
10
23.177265218333588
20
3.5104371048481982
30
0
10
23.337719402204272
20
3.2743367871860762
30
0
10
23.56153280018853
20
3.0776721709049779
30
0
10
23.781584870774616
20
2.8843126293697683
30
0
10
24.066016295680456
20
2.7225164474982071
30
0
10
24.39655374388591
20
2.5747899438686268
30
0
10
25.038675728208005
20
2.2878075273146319
30
0
10
25.875155140869623
20
2.0459982167297195
30
0
10
26.93747303651374
20
1.8185594295315655
30
0
10
27.964515930341069
20
1.5986729048572001
30
0
10
29.195247524896853
20
1.4004551805713106
30
0
10
30.49930377806454
20
1.2340267932220055
30
0
10
31.760057939750656
20
1.0731247757947218
30
0
10
33.084450952293906
20
0.94015641784190107
30
0
10
34.422900865837548
20
0.82737270004056795
30
0
10
36.97968285881332
20
0.61192692515023495
30
0
10
39.595132325910001
20
0.46629387420827262
30
0
10
42.219123194982274
20
0.35641052123692529
30
0
10
47.063612393429125
20
0.15354063977768759
30
0
10
51.954650226227741
20
0.072694130098452131
30
0
10
56.857794566258171
20
0.032799377267913488
30
0
10
61.125312096775318
20
-0.001923556684896785
30
0
10
65.406294513092433
20
-0.00035493498429043686
30
0
10
69.696060126292025
20
-0.00039544855568932237
30
0
10
84.272423297021547
20
-0.00053311121218420029
30
0
10
98.854192795636052
20
0.00019327588406088111
30
0
10
113.43664631888083
20
-0.00029551014962461513
30
0
10
120.63881522721628
20
-0.00053691805598459841
30
0
10
127.84133943947739
20
-0.00032890654986657015
30
0
10
135.04095814723169
20
-0.00028061531845351476
30
0
10
138.59679804250061
20
-0.00025676462660156164
30
0
10
142.15274339109794
20
-0.0003426634605051453
30
0
10
145.7080192879541
20
-2.838621390295074e-05
30
0
10
149.17749219597238
20
0.00027830626913530744
30
0
10
152.6662761964098
20
-0.00010471534745614314
30
0
10
156.1101968282799
20
-0.00015105078215851914
30
0
0
ENDSEC
0
SECTION
2
OBJECTS
0
DICTIONARY
5
C
100
AcDbDictionary
3
ACAD_GROUP
350
D
3
ACAD_MLINESTYLE
350
17
0
DICTIONARY
5
D
100
AcDbDictionary
0
DICTIONARY
5
1A
330
C
100
AcDbDictionary
0
DICTIONARY
5
17
100
AcDbDictionary
0
ENDSEC
0
EOF
